<svg width="184" height="149" viewBox="0 0 184 149" fill="none" xmlns="http://www.w3.org/2000/svg">
<g style="mix-blend-mode:overlay">
<path d="M77.935 0L68 8.28948L70.065 20.2894L82.065 24L92 15.7105L89.935 3.71048L77.935 0ZM77.0513 1.68138C77.4173 1.8417 77.835 1.88224 78.2411 1.79747C78.6471 1.71269 79.0213 1.50686 79.3087 1.21015L88.0085 3.90028C88.0156 4.03752 88.0388 4.17271 88.0779 4.30328L80.8741 10.3133C80.5082 10.1532 80.0918 10.1126 79.686 10.1973C79.2801 10.282 78.9061 10.4877 78.6188 10.7842L69.9169 8.09445C69.9098 7.95755 69.8866 7.8227 69.8477 7.69244L77.0513 1.68138ZM89.0488 5.34577C89.1776 5.40176 89.3126 5.44298 89.4517 5.46988L90.9488 14.1699C90.603 14.4014 90.3378 14.7291 90.1921 15.1048C90.0464 15.4805 90.0279 15.8845 90.1393 16.2574L82.9356 22.2674C82.8074 22.2119 82.6723 22.1706 82.5328 22.1444L81.0343 13.4933C81.3802 13.2619 81.6455 12.9345 81.7914 12.5589C81.9374 12.1834 81.9561 11.7795 81.8451 11.4066L89.0488 5.34577ZM69.3763 9.50218L78.0772 12.1921C78.0974 12.584 78.2488 12.9525 78.5092 13.2434C78.7696 13.5344 79.1253 13.7324 79.5241 13.8086L81.0212 22.5086C80.8996 22.5899 80.7889 22.6835 80.6876 22.7875L71.9868 20.0975C71.9666 19.7056 71.8151 19.3371 71.5547 19.0462C71.2943 18.7553 70.9386 18.5572 70.5399 18.481L69.0427 9.78108C69.1639 9.69948 69.2751 9.60609 69.3763 9.50218Z" fill="#BA99E4"/>
<path d="M69.935 20L60 28.2895L62.065 40.2894L74.065 44L84 35.7105L81.935 23.7105L69.935 20ZM69.0513 21.6814C69.4173 21.8417 69.835 21.8822 70.2411 21.7975C70.6471 21.7127 71.0213 21.5069 71.3087 21.2101L80.0085 23.9003C80.0156 24.0375 80.0388 24.1727 80.0779 24.3033L72.8741 30.3133C72.5082 30.1532 72.0918 30.1126 71.686 30.1973C71.2801 30.282 70.9061 30.4877 70.6188 30.7842L61.9169 28.0944C61.9098 27.9576 61.8866 27.8227 61.8477 27.6924L69.0513 21.6814ZM81.0488 25.3458C81.1776 25.4018 81.3126 25.443 81.4517 25.4699L82.9488 34.1699C82.603 34.4014 82.3378 34.7291 82.1921 35.1048C82.0464 35.4805 82.0279 35.8845 82.1393 36.2574L74.9356 42.2674C74.8074 42.2119 74.6723 42.1706 74.5328 42.1443L73.0343 33.4933C73.3802 33.2619 73.6455 32.9345 73.7914 32.5589C73.9374 32.1834 73.9561 31.7795 73.8451 31.4066L81.0488 25.3458ZM61.3763 29.5022L70.0772 32.1921C70.0974 32.584 70.2488 32.9525 70.5092 33.2434C70.7696 33.5344 71.1253 33.7324 71.5241 33.8086L73.0212 42.5086C72.8996 42.5899 72.7889 42.6835 72.6876 42.7875L63.9868 40.0975C63.9666 39.7056 63.8151 39.3371 63.5547 39.0462C63.2943 38.7553 62.9386 38.5572 62.5399 38.481L61.0427 29.7811C61.1639 29.6995 61.2751 29.6061 61.3763 29.5022Z" fill="#BA99E4"/>
<path d="M91.935 15L82 23.2895L84.065 35.2894L96.065 39L106 30.7105L103.935 18.7105L91.935 15ZM91.0513 16.6814C91.4173 16.8417 91.835 16.8822 92.2411 16.7975C92.6471 16.7127 93.0213 16.5069 93.3087 16.2101L102.009 18.9003C102.016 19.0375 102.039 19.1727 102.078 19.3033L94.8741 25.3133C94.5082 25.1532 94.0918 25.1126 93.686 25.1973C93.2801 25.282 92.9061 25.4877 92.6188 25.7842L83.9169 23.0944C83.9098 22.9576 83.8866 22.8227 83.8477 22.6924L91.0513 16.6814ZM103.049 20.3458C103.178 20.4018 103.313 20.443 103.452 20.4699L104.949 29.1699C104.603 29.4014 104.338 29.7291 104.192 30.1048C104.046 30.4805 104.028 30.8845 104.139 31.2574L96.9356 37.2674C96.8074 37.2119 96.6723 37.1706 96.5328 37.1443L95.0343 28.4933C95.3802 28.2619 95.6455 27.9345 95.7914 27.5589C95.9374 27.1834 95.9561 26.7795 95.8451 26.4066L103.049 20.3458ZM83.3763 24.5022L92.0772 27.1921C92.0974 27.584 92.2488 27.9525 92.5092 28.2434C92.7696 28.5344 93.1253 28.7324 93.5241 28.8086L95.0212 37.5086C94.8996 37.5899 94.7889 37.6835 94.6876 37.7875L85.9868 35.0975C85.9666 34.7056 85.8151 34.3371 85.5547 34.0462C85.2943 33.7553 84.9386 33.5572 84.5399 33.481L83.0427 24.7811C83.1639 24.6995 83.2751 24.6061 83.3763 24.5022Z" fill="#BA99E4"/>
<path d="M17.935 49L8 57.2895L10.065 69.2894L22.065 73L32 64.7105L29.935 52.7105L17.935 49ZM17.0513 50.6814C17.4173 50.8417 17.835 50.8822 18.2411 50.7975C18.6471 50.7127 19.0213 50.5069 19.3087 50.2101L28.0085 52.9003C28.0156 53.0375 28.0388 53.1727 28.0779 53.3033L20.8741 59.3133C20.5082 59.1532 20.0918 59.1126 19.686 59.1973C19.2801 59.282 18.9061 59.4877 18.6188 59.7842L9.91687 57.0944C9.90977 56.9576 9.88657 56.8227 9.8477 56.6924L17.0513 50.6814ZM29.0488 54.3458C29.1776 54.4018 29.3126 54.443 29.4517 54.4699L30.9488 63.1699C30.603 63.4014 30.3378 63.7291 30.1921 64.1048C30.0464 64.4805 30.0279 64.8845 30.1393 65.2574L22.9356 71.2674C22.8074 71.2119 22.6723 71.1706 22.5328 71.1443L21.0343 62.4933C21.3802 62.2619 21.6455 61.9345 21.7914 61.5589C21.9374 61.1834 21.9561 60.7795 21.8451 60.4066L29.0488 54.3458ZM9.37632 58.5022L18.0772 61.1921C18.0974 61.584 18.2488 61.9525 18.5092 62.2434C18.7696 62.5344 19.1253 62.7324 19.5241 62.8086L21.0212 71.5086C20.8996 71.5899 20.7889 71.6835 20.6876 71.7875L11.9868 69.0975C11.9666 68.7056 11.8151 68.3371 11.5547 68.0462C11.2943 67.7553 10.9386 67.5572 10.5399 67.481L9.04274 58.7811C9.16393 58.6995 9.27509 58.6061 9.37632 58.5022Z" fill="#BA99E4"/>
<path d="M23.935 83L14 91.2895L16.065 103.289L28.065 107L38 98.7105L35.935 86.7105L23.935 83ZM23.0513 84.6814C23.4173 84.8417 23.835 84.8822 24.2411 84.7975C24.6471 84.7127 25.0213 84.5069 25.3087 84.2101L34.0085 86.9003C34.0156 87.0375 34.0388 87.1727 34.0779 87.3033L26.8741 93.3133C26.5082 93.1532 26.0918 93.1126 25.686 93.1973C25.2801 93.282 24.9061 93.4877 24.6188 93.7841L15.9169 91.0944C15.9098 90.9576 15.8866 90.8227 15.8477 90.6924L23.0513 84.6814ZM35.0488 88.3458C35.1776 88.4018 35.3126 88.443 35.4517 88.4699L36.9488 97.1699C36.603 97.4014 36.3378 97.7291 36.1921 98.1048C36.0464 98.4805 36.0279 98.8845 36.1393 99.2574L28.9356 105.267C28.8074 105.212 28.6723 105.171 28.5328 105.144L27.0343 96.4933C27.3802 96.2619 27.6455 95.9345 27.7914 95.5589C27.9374 95.1834 27.9561 94.7795 27.8451 94.4066L35.0488 88.3458ZM15.3763 92.5022L24.0772 95.1921C24.0974 95.5841 24.2488 95.9525 24.5092 96.2434C24.7696 96.5344 25.1253 96.7324 25.5241 96.8086L27.0212 105.509C26.8996 105.59 26.7889 105.683 26.6876 105.787L17.9868 103.098C17.9666 102.706 17.8151 102.337 17.5547 102.046C17.2943 101.755 16.9386 101.557 16.5399 101.481L15.0427 92.7811C15.1639 92.6995 15.2751 92.6061 15.3763 92.5022Z" fill="#BA99E4"/>
<path d="M155.935 55L146 63.2895L148.065 75.2894L160.065 79L170 70.7105L167.935 58.7105L155.935 55ZM155.051 56.6814C155.417 56.8417 155.835 56.8822 156.241 56.7975C156.647 56.7127 157.021 56.5069 157.309 56.2101L166.009 58.9003C166.016 59.0375 166.039 59.1727 166.078 59.3033L158.874 65.3133C158.508 65.1532 158.092 65.1126 157.686 65.1973C157.28 65.282 156.906 65.4877 156.619 65.7841L147.917 63.0944C147.91 62.9576 147.887 62.8227 147.848 62.6924L155.051 56.6814ZM167.049 60.3458C167.178 60.4018 167.313 60.443 167.452 60.4699L168.949 69.1699C168.603 69.4014 168.338 69.7291 168.192 70.1048C168.046 70.4805 168.028 70.8845 168.139 71.2574L160.936 77.2674C160.807 77.2119 160.672 77.1706 160.533 77.1443L159.034 68.4933C159.38 68.2619 159.646 67.9345 159.791 67.5589C159.937 67.1834 159.956 66.7795 159.845 66.4066L167.049 60.3458ZM147.376 64.5022L156.077 67.1921C156.097 67.5841 156.249 67.9525 156.509 68.2434C156.77 68.5344 157.125 68.7324 157.524 68.8086L159.021 77.5086C158.9 77.5899 158.789 77.6835 158.688 77.7875L149.987 75.0975C149.967 74.7056 149.815 74.3371 149.555 74.0462C149.294 73.7553 148.939 73.5572 148.54 73.481L147.043 64.7811C147.164 64.6995 147.275 64.6061 147.376 64.5022Z" fill="#BA99E4"/>
<path d="M9.93503 69L0 77.2895L2.06498 89.2894L14.065 93L24 84.7105L21.935 72.7105L9.93503 69ZM9.05126 70.6814C9.4173 70.8417 9.83497 70.8822 10.2411 70.7975C10.6471 70.7127 11.0213 70.5069 11.3087 70.2101L20.0085 72.9003C20.0156 73.0375 20.0388 73.1727 20.0779 73.3033L12.8741 79.3133C12.5082 79.1532 12.0918 79.1126 11.686 79.1973C11.2801 79.282 10.9061 79.4877 10.6188 79.7841L1.91687 77.0944C1.90976 76.9576 1.88657 76.8227 1.8477 76.6924L9.05126 70.6814ZM21.0488 74.3458C21.1776 74.4018 21.3126 74.443 21.4517 74.4699L22.9488 83.1699C22.603 83.4014 22.3378 83.7291 22.1921 84.1048C22.0464 84.4805 22.0279 84.8845 22.1393 85.2574L14.9356 91.2674C14.8074 91.2119 14.6723 91.1706 14.5328 91.1443L13.0343 82.4933C13.3802 82.2619 13.6455 81.9345 13.7914 81.5589C13.9374 81.1834 13.9561 80.7795 13.8451 80.4066L21.0488 74.3458ZM1.37632 78.5022L10.0772 81.1921C10.0974 81.5841 10.2488 81.9525 10.5092 82.2434C10.7696 82.5344 11.1253 82.7324 11.5241 82.8086L13.0212 91.5086C12.8996 91.5899 12.7889 91.6835 12.6876 91.7875L3.98676 89.0975C3.96656 88.7056 3.81514 88.3371 3.55474 88.0462C3.29433 87.7553 2.93864 87.5572 2.53986 87.481L1.04274 78.7811C1.16393 78.6995 1.27509 78.6061 1.37632 78.5022Z" fill="#BA99E4"/>
<path d="M15.935 103L6 111.289L8.06498 123.289L20.065 127L30 118.71L27.935 106.71L15.935 103ZM15.0513 104.681C15.4173 104.842 15.835 104.882 16.2411 104.797C16.6471 104.713 17.0213 104.507 17.3087 104.21L26.0085 106.9C26.0156 107.038 26.0388 107.173 26.0779 107.303L18.8741 113.313C18.5082 113.153 18.0918 113.113 17.686 113.197C17.2801 113.282 16.9061 113.488 16.6188 113.784L7.91687 111.094C7.90977 110.958 7.88657 110.823 7.8477 110.692L15.0513 104.681ZM27.0488 108.346C27.1776 108.402 27.3126 108.443 27.4517 108.47L28.9488 117.17C28.603 117.401 28.3378 117.729 28.1921 118.105C28.0464 118.481 28.0279 118.884 28.1393 119.257L20.9356 125.267C20.8074 125.212 20.6723 125.171 20.5328 125.144L19.0343 116.493C19.3802 116.262 19.6455 115.934 19.7914 115.559C19.9374 115.183 19.9561 114.78 19.8451 114.407L27.0488 108.346ZM7.37632 112.502L16.0772 115.192C16.0974 115.584 16.2488 115.953 16.5092 116.243C16.7696 116.534 17.1253 116.732 17.5241 116.809L19.0212 125.509C18.8996 125.59 18.7889 125.683 18.6876 125.787L9.98676 123.098C9.96656 122.706 9.81514 122.337 9.55474 122.046C9.29433 121.755 8.93864 121.557 8.53986 121.481L7.04274 112.781C7.16393 112.699 7.27509 112.606 7.37632 112.502Z" fill="#BA99E4"/>
<path d="M147.935 75L138 83.2895L140.065 95.2894L152.065 99L162 90.7105L159.935 78.7105L147.935 75ZM147.051 76.6814C147.417 76.8417 147.835 76.8822 148.241 76.7975C148.647 76.7127 149.021 76.5069 149.309 76.2101L158.009 78.9003C158.016 79.0375 158.039 79.1727 158.078 79.3033L150.874 85.3133C150.508 85.1532 150.092 85.1126 149.686 85.1973C149.28 85.282 148.906 85.4877 148.619 85.7841L139.917 83.0944C139.91 82.9576 139.887 82.8227 139.848 82.6924L147.051 76.6814ZM159.049 80.3458C159.178 80.4018 159.313 80.443 159.452 80.4699L160.949 89.1699C160.603 89.4014 160.338 89.7291 160.192 90.1048C160.046 90.4805 160.028 90.8845 160.139 91.2574L152.936 97.2674C152.807 97.2119 152.672 97.1706 152.533 97.1443L151.034 88.4933C151.38 88.2619 151.646 87.9345 151.791 87.5589C151.937 87.1834 151.956 86.7795 151.845 86.4066L159.049 80.3458ZM139.376 84.5022L148.077 87.1921C148.097 87.5841 148.249 87.9525 148.509 88.2434C148.77 88.5344 149.125 88.7324 149.524 88.8086L151.021 97.5086C150.9 97.5899 150.789 97.6835 150.688 97.7875L141.987 95.0975C141.967 94.7056 141.815 94.3371 141.555 94.0462C141.294 93.7553 140.939 93.5572 140.54 93.481L139.043 84.7811C139.164 84.6995 139.275 84.6061 139.376 84.5022Z" fill="#BA99E4"/>
<path d="M31.935 64L22 72.2895L24.065 84.2894L36.065 88L46 79.7105L43.935 67.7105L31.935 64ZM31.0513 65.6814C31.4173 65.8417 31.835 65.8822 32.2411 65.7975C32.6471 65.7127 33.0213 65.5069 33.3087 65.2101L42.0085 67.9003C42.0156 68.0375 42.0388 68.1727 42.0779 68.3033L34.8741 74.3133C34.5082 74.1532 34.0918 74.1126 33.686 74.1973C33.2801 74.282 32.9061 74.4877 32.6188 74.7841L23.9169 72.0944C23.9098 71.9576 23.8866 71.8227 23.8477 71.6924L31.0513 65.6814ZM43.0488 69.3458C43.1776 69.4018 43.3126 69.443 43.4517 69.4699L44.9488 78.1699C44.603 78.4014 44.3378 78.7291 44.1921 79.1048C44.0464 79.4805 44.0279 79.8845 44.1393 80.2574L36.9356 86.2674C36.8074 86.2119 36.6723 86.1706 36.5328 86.1443L35.0343 77.4933C35.3802 77.2619 35.6455 76.9345 35.7914 76.5589C35.9374 76.1834 35.9561 75.7795 35.8451 75.4066L43.0488 69.3458ZM23.3763 73.5022L32.0772 76.1921C32.0974 76.5841 32.2488 76.9525 32.5092 77.2434C32.7696 77.5344 33.1253 77.7324 33.5241 77.8086L35.0212 86.5086C34.8996 86.5899 34.7889 86.6835 34.6876 86.7875L25.9868 84.0975C25.9666 83.7056 25.8151 83.3371 25.5547 83.0462C25.2943 82.7553 24.9386 82.5572 24.5399 82.481L23.0427 73.7811C23.1639 73.6995 23.2751 73.6061 23.3763 73.5022Z" fill="#BA99E4"/>
<path d="M37.935 98L28 106.289L30.065 118.289L42.065 122L52 113.71L49.935 101.71L37.935 98ZM37.0513 99.6814C37.4173 99.8417 37.835 99.8822 38.2411 99.7975C38.6471 99.7127 39.0213 99.5069 39.3087 99.2101L48.0085 101.9C48.0156 102.038 48.0388 102.173 48.0779 102.303L40.8741 108.313C40.5082 108.153 40.0918 108.113 39.686 108.197C39.2801 108.282 38.9061 108.488 38.6188 108.784L29.9169 106.094C29.9098 105.958 29.8866 105.823 29.8477 105.692L37.0513 99.6814ZM49.0488 103.346C49.1776 103.402 49.3126 103.443 49.4517 103.47L50.9488 112.17C50.603 112.401 50.3378 112.729 50.1921 113.105C50.0464 113.481 50.0279 113.884 50.1393 114.257L42.9356 120.267C42.8074 120.212 42.6723 120.171 42.5328 120.144L41.0343 111.493C41.3802 111.262 41.6455 110.934 41.7914 110.559C41.9374 110.183 41.9561 109.78 41.8451 109.407L49.0488 103.346ZM29.3763 107.502L38.0772 110.192C38.0974 110.584 38.2488 110.953 38.5092 111.243C38.7696 111.534 39.1253 111.732 39.5241 111.809L41.0212 120.509C40.8996 120.59 40.7889 120.683 40.6876 120.787L31.9868 118.098C31.9666 117.706 31.8151 117.337 31.5547 117.046C31.2943 116.755 30.9386 116.557 30.5399 116.481L29.0427 107.781C29.1639 107.699 29.2751 107.606 29.3763 107.502Z" fill="#BA99E4"/>
<path d="M169.935 70L160 78.2895L162.065 90.2894L174.065 94L184 85.7105L181.935 73.7105L169.935 70ZM169.051 71.6814C169.417 71.8417 169.835 71.8822 170.241 71.7975C170.647 71.7127 171.021 71.5069 171.309 71.2101L180.009 73.9003C180.016 74.0375 180.039 74.1727 180.078 74.3033L172.874 80.3133C172.508 80.1532 172.092 80.1126 171.686 80.1973C171.28 80.282 170.906 80.4877 170.619 80.7841L161.917 78.0944C161.91 77.9576 161.887 77.8227 161.848 77.6924L169.051 71.6814ZM181.049 75.3458C181.178 75.4018 181.313 75.443 181.452 75.4699L182.949 84.1699C182.603 84.4014 182.338 84.7291 182.192 85.1048C182.046 85.4805 182.028 85.8845 182.139 86.2574L174.936 92.2674C174.807 92.2119 174.672 92.1706 174.533 92.1443L173.034 83.4933C173.38 83.2619 173.646 82.9345 173.791 82.5589C173.937 82.1834 173.956 81.7795 173.845 81.4066L181.049 75.3458ZM161.376 79.5022L170.077 82.1921C170.097 82.5841 170.249 82.9525 170.509 83.2434C170.77 83.5344 171.125 83.7324 171.524 83.8086L173.021 92.5086C172.9 92.5899 172.789 92.6835 172.688 92.7875L163.987 90.0975C163.967 89.7056 163.815 89.3371 163.555 89.0462C163.294 88.7553 162.939 88.5572 162.54 88.481L161.043 79.7811C161.164 79.6995 161.275 79.6061 161.376 79.5022Z" fill="#BA99E4"/>
<path d="M139 83C139 109.51 117.51 131 91 131C64.4903 131 43 109.51 43 83C43 56.4903 64.4903 35 91 35C117.51 35 139 56.4903 139 83Z" fill="#24234A"/>
<path d="M115.223 55.9635L120.003 101.212L114.005 101.845L109.225 56.5971L115.223 55.9635ZM136.33 74.3167L136.849 79.2269L116.587 81.3671L116.068 76.4569L136.33 74.3167ZM137.257 53.6362L137.776 58.5464L114.437 61.0116L113.918 56.1014L137.257 53.6362Z" fill="white"/>
<path d="M62.5624 89.336L50.4734 90.6129L49.9581 85.7338L62.0471 84.4569C64.3882 84.2096 66.2445 83.6364 67.616 82.7374C68.9875 81.8384 69.9347 80.6909 70.4576 79.2949C71.0013 77.8967 71.1834 76.3482 71.0039 74.6493C70.8398 73.0954 70.3437 71.6709 69.5155 70.3757C68.7081 69.0784 67.5355 68.0919 65.9977 67.4164C64.4577 66.7201 62.5172 66.4956 60.176 66.7429L49.4855 67.8721L53.7462 108.21L47.7483 108.844L42.969 63.5955L59.6574 61.8327C63.0759 61.4717 66.0284 61.7568 68.515 62.6883C71.0016 63.6198 72.9666 65.0672 74.41 67.0306C75.8512 68.9733 76.7129 71.281 76.9952 73.9536C77.3016 76.8541 76.9519 79.3945 75.9462 81.5747C74.9405 83.7549 73.3136 85.5084 71.0655 86.8352C68.8153 88.1413 65.9809 88.9749 62.5624 89.336Z" fill="white"/>
<path d="M107.041 93.5937C106.915 92.405 106.618 91.3759 106.149 90.5062C105.701 89.6109 104.983 88.8382 103.995 88.1884C103.031 87.5361 101.72 86.9557 100.064 86.4472C98.4311 85.9362 96.3773 85.4579 93.9027 85.0122C91.3067 84.5323 88.9468 83.9449 86.823 83.25C84.6967 82.5319 82.8483 81.6548 81.2776 80.6188C79.707 79.5827 78.4558 78.3361 77.5242 76.8791C76.5926 75.422 76.0221 73.7029 75.8128 71.7217C75.6036 69.7405 75.8182 67.8678 76.4567 66.1035C77.0952 64.3391 78.1068 62.7593 79.4913 61.3639C80.8967 59.9428 82.6229 58.7707 84.6701 57.8474C86.7172 56.9241 89.0461 56.3246 91.6565 56.0489C95.479 55.6451 98.7964 56.0371 101.609 57.2248C104.442 58.3868 106.682 60.071 108.329 62.2774C109.973 64.4604 110.936 66.8805 111.217 69.5376L104.504 70.2466C104.302 68.3354 103.716 66.6887 102.745 65.3064C101.772 63.9009 100.413 62.866 98.6698 62.2017C96.9238 61.5141 94.7806 61.3045 92.24 61.5728C89.8393 61.8264 87.8963 62.3969 86.411 63.2844C84.9257 64.1719 83.8637 65.2739 83.225 66.5905C82.6096 67.9046 82.3857 69.3541 82.5531 70.9391C82.6663 72.0112 82.9911 72.9668 83.5275 73.8057C84.0848 74.6188 84.8806 75.3479 85.915 75.9928C86.9727 76.6352 88.2807 77.1923 89.8388 77.6641C91.4203 78.1334 93.2907 78.5486 95.45 78.9097C98.4263 79.4202 101.016 80.0658 103.22 80.8464C105.423 81.6271 107.268 82.5754 108.752 83.6912C110.258 84.7812 111.421 86.0843 112.241 87.6003C113.082 89.0905 113.607 90.8262 113.816 92.8074C114.035 94.8818 113.814 96.8024 113.152 98.5692C112.49 100.336 111.441 101.896 110.005 103.25C108.569 104.603 106.79 105.722 104.668 106.606C102.567 107.465 100.176 108.035 97.4957 108.318C95.1416 108.567 92.788 108.486 90.4349 108.074C88.1051 107.661 85.939 106.9 83.9365 105.791C81.9573 104.68 80.3074 103.229 78.9867 101.436C77.6869 99.6167 76.9028 97.437 76.6345 94.8964L83.3472 94.1874C83.5318 95.9355 84.0286 97.4031 84.8374 98.5904C85.6438 99.7543 86.6728 100.683 87.9244 101.375C89.1993 102.065 90.6035 102.53 92.137 102.769C93.6914 102.981 95.2844 103.002 96.9159 102.829C99.27 102.581 101.228 102.044 102.791 101.219C104.354 100.394 105.49 99.3313 106.202 98.0306C106.936 96.7275 107.216 95.2486 107.041 93.5937Z" fill="white"/>
<path d="M89.935 70L80 78.2895L82.065 90.2894L94.065 94L104 85.7105L101.935 73.7105L89.935 70ZM89.0513 71.6814C89.4173 71.8417 89.835 71.8822 90.2411 71.7975C90.6471 71.7127 91.0213 71.5069 91.3087 71.2101L100.009 73.9003C100.016 74.0375 100.039 74.1727 100.078 74.3033L92.8741 80.3133C92.5082 80.1532 92.0918 80.1126 91.686 80.1973C91.2801 80.282 90.9061 80.4877 90.6188 80.7841L81.9169 78.0944C81.9098 77.9576 81.8866 77.8227 81.8477 77.6924L89.0513 71.6814ZM101.049 75.3458C101.178 75.4018 101.313 75.443 101.452 75.4699L102.949 84.1699C102.603 84.4014 102.338 84.7291 102.192 85.1048C102.046 85.4805 102.028 85.8845 102.139 86.2574L94.9356 92.2674C94.8074 92.2119 94.6723 92.1706 94.5328 92.1443L93.0343 83.4933C93.3802 83.2619 93.6455 82.9345 93.7914 82.5589C93.9374 82.1834 93.9561 81.7795 93.8451 81.4066L101.049 75.3458ZM81.3763 79.5022L90.0772 82.1921C90.0974 82.5841 90.2488 82.9525 90.5092 83.2434C90.7696 83.5344 91.1253 83.7324 91.5241 83.8086L93.0212 92.5086C92.8996 92.5899 92.7889 92.6835 92.6876 92.7875L83.9868 90.0975C83.9666 89.7056 83.8151 89.3371 83.5547 89.0462C83.2943 88.7553 82.9386 88.5572 82.5399 88.481L81.0427 79.7811C81.1639 79.6995 81.2751 79.6061 81.3763 79.5022Z" fill="#BA99E4"/>
<path d="M53.935 59L44 67.2895L46.065 79.2894L58.065 83L68 74.7105L65.935 62.7105L53.935 59ZM53.0513 60.6814C53.4173 60.8417 53.835 60.8822 54.2411 60.7975C54.6471 60.7127 55.0213 60.5069 55.3087 60.2101L64.0085 62.9003C64.0156 63.0375 64.0388 63.1727 64.0779 63.3033L56.8741 69.3133C56.5082 69.1532 56.0918 69.1126 55.686 69.1973C55.2801 69.282 54.9061 69.4877 54.6188 69.7841L45.9169 67.0944C45.9098 66.9576 45.8866 66.8227 45.8477 66.6924L53.0513 60.6814ZM65.0488 64.3458C65.1776 64.4018 65.3126 64.443 65.4517 64.4699L66.9488 73.1699C66.603 73.4014 66.3378 73.7291 66.1921 74.1048C66.0464 74.4805 66.0279 74.8845 66.1393 75.2574L58.9356 81.2674C58.8074 81.2119 58.6723 81.1706 58.5328 81.1443L57.0343 72.4933C57.3802 72.2619 57.6455 71.9345 57.7914 71.5589C57.9374 71.1834 57.9561 70.7795 57.8451 70.4066L65.0488 64.3458ZM45.3763 68.5022L54.0772 71.1921C54.0974 71.5841 54.2488 71.9525 54.5092 72.2434C54.7696 72.5344 55.1253 72.7324 55.5241 72.8086L57.0212 81.5086C56.8996 81.5899 56.7889 81.6835 56.6876 81.7875L47.9868 79.0975C47.9666 78.7056 47.8151 78.3371 47.5547 78.0462C47.2943 77.7553 46.9386 77.5572 46.5399 77.481L45.0427 68.7811C45.1639 68.6995 45.2751 68.6061 45.3763 68.5022Z" fill="#BA99E4"/>
<path d="M59.935 94L50 102.289L52.065 114.289L64.065 118L74 109.71L71.935 97.7105L59.935 94ZM59.0513 95.6814C59.4173 95.8417 59.835 95.8822 60.2411 95.7975C60.6471 95.7127 61.0213 95.5069 61.3087 95.2101L70.0085 97.9003C70.0156 98.0375 70.0388 98.1727 70.0779 98.3033L62.8741 104.313C62.5082 104.153 62.0918 104.113 61.686 104.197C61.2801 104.282 60.9061 104.488 60.6188 104.784L51.9169 102.094C51.9098 101.958 51.8866 101.823 51.8477 101.692L59.0513 95.6814ZM71.0488 99.3458C71.1776 99.4018 71.3126 99.443 71.4517 99.4699L72.9488 108.17C72.603 108.401 72.3378 108.729 72.1921 109.105C72.0464 109.481 72.0279 109.884 72.1393 110.257L64.9356 116.267C64.8074 116.212 64.6723 116.171 64.5328 116.144L63.0343 107.493C63.3802 107.262 63.6455 106.934 63.7914 106.559C63.9374 106.183 63.9561 105.78 63.8451 105.407L71.0488 99.3458ZM51.3763 103.502L60.0772 106.192C60.0974 106.584 60.2488 106.953 60.5092 107.243C60.7696 107.534 61.1253 107.732 61.5241 107.809L63.0212 116.509C62.8996 116.59 62.7889 116.683 62.6876 116.787L53.9868 114.098C53.9666 113.706 53.8151 113.337 53.5547 113.046C53.2943 112.755 52.9386 112.557 52.5399 112.481L51.0427 103.781C51.1639 103.699 51.2751 103.606 51.3763 103.502Z" fill="#BA99E4"/>
<path d="M81.935 90L72 98.2895L74.065 110.289L86.065 114L96 105.71L93.935 93.7105L81.935 90ZM81.0513 91.6814C81.4173 91.8417 81.835 91.8822 82.2411 91.7975C82.6471 91.7127 83.0213 91.5069 83.3087 91.2101L92.0085 93.9003C92.0156 94.0375 92.0388 94.1727 92.0779 94.3033L84.8741 100.313C84.5082 100.153 84.0918 100.113 83.686 100.197C83.2801 100.282 82.9061 100.488 82.6188 100.784L73.9169 98.0944C73.9098 97.9576 73.8866 97.8227 73.8477 97.6924L81.0513 91.6814ZM93.0488 95.3458C93.1776 95.4018 93.3126 95.443 93.4517 95.4699L94.9488 104.17C94.603 104.401 94.3378 104.729 94.1921 105.105C94.0464 105.481 94.0279 105.884 94.1393 106.257L86.9356 112.267C86.8074 112.212 86.6723 112.171 86.5328 112.144L85.0343 103.493C85.3802 103.262 85.6455 102.934 85.7914 102.559C85.9374 102.183 85.9561 101.78 85.8451 101.407L93.0488 95.3458ZM73.3763 99.5022L82.0772 102.192C82.0974 102.584 82.2488 102.953 82.5092 103.243C82.7696 103.534 83.1253 103.732 83.5241 103.809L85.0212 112.509C84.8996 112.59 84.7889 112.683 84.6876 112.787L75.9868 110.098C75.9666 109.706 75.8151 109.337 75.5547 109.046C75.2943 108.755 74.9386 108.557 74.5399 108.481L73.0427 99.7811C73.1639 99.6995 73.2751 99.6061 73.3763 99.5022Z" fill="#BA99E4"/>
<path d="M45.935 79L36 87.2895L38.065 99.2894L50.065 103L60 94.7105L57.935 82.7105L45.935 79ZM45.0513 80.6814C45.4173 80.8417 45.835 80.8822 46.2411 80.7975C46.6471 80.7127 47.0213 80.5069 47.3087 80.2101L56.0085 82.9003C56.0156 83.0375 56.0388 83.1727 56.0779 83.3033L48.8741 89.3133C48.5082 89.1532 48.0918 89.1126 47.686 89.1973C47.2801 89.282 46.9061 89.4877 46.6188 89.7841L37.9169 87.0944C37.9098 86.9576 37.8866 86.8227 37.8477 86.6924L45.0513 80.6814ZM57.0488 84.3458C57.1776 84.4018 57.3126 84.443 57.4517 84.4699L58.9488 93.1699C58.603 93.4014 58.3378 93.7291 58.1921 94.1048C58.0464 94.4805 58.0279 94.8845 58.1393 95.2574L50.9356 101.267C50.8074 101.212 50.6723 101.171 50.5328 101.144L49.0343 92.4933C49.3802 92.2619 49.6455 91.9345 49.7914 91.5589C49.9374 91.1834 49.9561 90.7795 49.8451 90.4066L57.0488 84.3458ZM37.3763 88.5022L46.0772 91.1921C46.0974 91.5841 46.2488 91.9525 46.5092 92.2434C46.7696 92.5344 47.1253 92.7324 47.5241 92.8086L49.0212 101.509C48.8996 101.59 48.7889 101.683 48.6876 101.787L39.9868 99.0975C39.9666 98.7056 39.8151 98.3371 39.5547 98.0462C39.2943 97.7553 38.9386 97.5572 38.5399 97.481L37.0427 88.7811C37.1639 88.6995 37.2751 88.6061 37.3763 88.5022Z" fill="#BA99E4"/>
<path d="M51.935 114L42 122.289L44.065 134.289L56.065 138L66 129.71L63.935 117.71L51.935 114ZM51.0513 115.681C51.4173 115.842 51.835 115.882 52.2411 115.797C52.6471 115.713 53.0213 115.507 53.3087 115.21L62.0085 117.9C62.0156 118.038 62.0388 118.173 62.0779 118.303L54.8741 124.313C54.5082 124.153 54.0918 124.113 53.686 124.197C53.2801 124.282 52.9061 124.488 52.6188 124.784L43.9169 122.094C43.9098 121.958 43.8866 121.823 43.8477 121.692L51.0513 115.681ZM63.0488 119.346C63.1776 119.402 63.3126 119.443 63.4517 119.47L64.9488 128.17C64.603 128.401 64.3378 128.729 64.1921 129.105C64.0464 129.481 64.0279 129.884 64.1393 130.257L56.9356 136.267C56.8074 136.212 56.6723 136.171 56.5328 136.144L55.0343 127.493C55.3802 127.262 55.6455 126.934 55.7914 126.559C55.9374 126.183 55.9561 125.78 55.8451 125.407L63.0488 119.346ZM43.3763 123.502L52.0772 126.192C52.0974 126.584 52.2488 126.953 52.5092 127.243C52.7696 127.534 53.1253 127.732 53.5241 127.809L55.0212 136.509C54.8996 136.59 54.7889 136.683 54.6876 136.787L45.9868 134.098C45.9666 133.706 45.8151 133.337 45.5547 133.046C45.2943 132.755 44.9386 132.557 44.5399 132.481L43.0427 123.781C43.1639 123.699 43.2751 123.606 43.3763 123.502Z" fill="#BA99E4"/>
<path d="M103.935 85L94 93.2895L96.065 105.289L108.065 109L118 100.71L115.935 88.7105L103.935 85ZM103.051 86.6814C103.417 86.8417 103.835 86.8822 104.241 86.7975C104.647 86.7127 105.021 86.5069 105.309 86.2101L114.009 88.9003C114.016 89.0375 114.039 89.1727 114.078 89.3033L106.874 95.3133C106.508 95.1532 106.092 95.1126 105.686 95.1973C105.28 95.282 104.906 95.4877 104.619 95.7841L95.9169 93.0944C95.9098 92.9576 95.8866 92.8227 95.8477 92.6924L103.051 86.6814ZM115.049 90.3458C115.178 90.4018 115.313 90.443 115.452 90.4699L116.949 99.1699C116.603 99.4014 116.338 99.7291 116.192 100.105C116.046 100.481 116.028 100.884 116.139 101.257L108.936 107.267C108.807 107.212 108.672 107.171 108.533 107.144L107.034 98.4933C107.38 98.2619 107.646 97.9345 107.791 97.5589C107.937 97.1834 107.956 96.7795 107.845 96.4066L115.049 90.3458ZM95.3763 94.5022L104.077 97.1921C104.097 97.5841 104.249 97.9525 104.509 98.2434C104.77 98.5344 105.125 98.7324 105.524 98.8086L107.021 107.509C106.9 107.59 106.789 107.683 106.688 107.787L97.9868 105.098C97.9666 104.706 97.8151 104.337 97.5547 104.046C97.2943 103.755 96.9386 103.557 96.5399 103.481L95.0427 94.7811C95.1639 94.6995 95.2751 94.6061 95.3763 94.5022Z" fill="#BA99E4"/>
<path d="M67.935 74L58 82.2895L60.065 94.2894L72.065 98L82 89.7105L79.935 77.7105L67.935 74ZM67.0513 75.6814C67.4173 75.8417 67.835 75.8822 68.2411 75.7975C68.6471 75.7127 69.0213 75.5069 69.3087 75.2101L78.0085 77.9003C78.0156 78.0375 78.0388 78.1727 78.0779 78.3033L70.8741 84.3133C70.5082 84.1532 70.0918 84.1126 69.686 84.1973C69.2801 84.282 68.9061 84.4877 68.6188 84.7841L59.9169 82.0944C59.9098 81.9576 59.8866 81.8227 59.8477 81.6924L67.0513 75.6814ZM79.0488 79.3458C79.1776 79.4018 79.3126 79.443 79.4517 79.4699L80.9488 88.1699C80.603 88.4014 80.3378 88.7291 80.1921 89.1048C80.0464 89.4805 80.0279 89.8845 80.1393 90.2574L72.9356 96.2674C72.8074 96.2119 72.6723 96.1706 72.5328 96.1443L71.0343 87.4933C71.3802 87.2619 71.6455 86.9345 71.7914 86.5589C71.9374 86.1834 71.9561 85.7795 71.8451 85.4066L79.0488 79.3458ZM59.3763 83.5022L68.0772 86.1921C68.0974 86.5841 68.2488 86.9525 68.5092 87.2434C68.7696 87.5344 69.1253 87.7324 69.5241 87.8086L71.0212 96.5086C70.8996 96.5899 70.7889 96.6835 70.6876 96.7875L61.9868 94.0975C61.9666 93.7056 61.8151 93.3371 61.5547 93.0462C61.2943 92.7553 60.9386 92.5572 60.5399 92.481L59.0427 83.7811C59.1639 83.6995 59.2751 83.6061 59.3763 83.5022Z" fill="#BA99E4"/>
<path d="M73.935 109L64 117.289L66.065 129.289L78.065 133L88 124.71L85.935 112.71L73.935 109ZM73.0513 110.681C73.4173 110.842 73.835 110.882 74.2411 110.797C74.6471 110.713 75.0213 110.507 75.3087 110.21L84.0085 112.9C84.0156 113.038 84.0388 113.173 84.0779 113.303L76.8741 119.313C76.5082 119.153 76.0918 119.113 75.686 119.197C75.2801 119.282 74.9061 119.488 74.6188 119.784L65.9169 117.094C65.9098 116.958 65.8866 116.823 65.8477 116.692L73.0513 110.681ZM85.0488 114.346C85.1776 114.402 85.3126 114.443 85.4517 114.47L86.9488 123.17C86.603 123.401 86.3378 123.729 86.1921 124.105C86.0464 124.481 86.0279 124.884 86.1393 125.257L78.9356 131.267C78.8074 131.212 78.6723 131.171 78.5328 131.144L77.0343 122.493C77.3802 122.262 77.6455 121.934 77.7914 121.559C77.9374 121.183 77.9561 120.78 77.8451 120.407L85.0488 114.346ZM65.3763 118.502L74.0772 121.192C74.0974 121.584 74.2488 121.953 74.5092 122.243C74.7696 122.534 75.1253 122.732 75.5241 122.809L77.0212 131.509C76.8996 131.59 76.7889 131.683 76.6876 131.787L67.9868 129.098C67.9666 128.706 67.8151 128.337 67.5547 128.046C67.2943 127.755 66.9386 127.557 66.5399 127.481L65.0427 118.781C65.1639 118.699 65.2751 118.606 65.3763 118.502Z" fill="#BA99E4"/>
<path d="M125.935 80L116 88.2895L118.065 100.289L130.065 104L140 95.7105L137.935 83.7105L125.935 80ZM125.051 81.6814C125.417 81.8417 125.835 81.8822 126.241 81.7975C126.647 81.7127 127.021 81.5069 127.309 81.2101L136.009 83.9003C136.016 84.0375 136.039 84.1727 136.078 84.3033L128.874 90.3133C128.508 90.1532 128.092 90.1126 127.686 90.1973C127.28 90.282 126.906 90.4877 126.619 90.7841L117.917 88.0944C117.91 87.9576 117.887 87.8227 117.848 87.6924L125.051 81.6814ZM137.049 85.3458C137.178 85.4018 137.313 85.443 137.452 85.4699L138.949 94.1699C138.603 94.4014 138.338 94.7291 138.192 95.1048C138.046 95.4805 138.028 95.8845 138.139 96.2574L130.936 102.267C130.807 102.212 130.672 102.171 130.533 102.144L129.034 93.4933C129.38 93.2619 129.646 92.9345 129.791 92.5589C129.937 92.1834 129.956 91.7795 129.845 91.4066L137.049 85.3458ZM117.376 89.5022L126.077 92.1921C126.097 92.5841 126.249 92.9525 126.509 93.2434C126.77 93.5344 127.125 93.7324 127.524 93.8086L129.021 102.509C128.9 102.59 128.789 102.683 128.688 102.787L119.987 100.098C119.967 99.7056 119.815 99.3371 119.555 99.0462C119.294 98.7553 118.939 98.5572 118.54 98.481L117.043 89.7811C117.164 89.6995 117.275 89.6061 117.376 89.5022Z" fill="#BA99E4"/>
<path d="M119.935 45L110 53.2895L112.065 65.2894L124.065 69L134 60.7105L131.935 48.7105L119.935 45ZM119.051 46.6814C119.417 46.8417 119.835 46.8822 120.241 46.7975C120.647 46.7127 121.021 46.5069 121.309 46.2101L130.009 48.9003C130.016 49.0375 130.039 49.1727 130.078 49.3033L122.874 55.3133C122.508 55.1532 122.092 55.1126 121.686 55.1973C121.28 55.282 120.906 55.4877 120.619 55.7842L111.917 53.0944C111.91 52.9576 111.887 52.8227 111.848 52.6924L119.051 46.6814ZM131.049 50.3458C131.178 50.4018 131.313 50.443 131.452 50.4699L132.949 59.1699C132.603 59.4014 132.338 59.7291 132.192 60.1048C132.046 60.4805 132.028 60.8845 132.139 61.2574L124.936 67.2674C124.807 67.2119 124.672 67.1706 124.533 67.1443L123.034 58.4933C123.38 58.2619 123.646 57.9345 123.791 57.5589C123.937 57.1834 123.956 56.7795 123.845 56.4066L131.049 50.3458ZM111.376 54.5022L120.077 57.1921C120.097 57.584 120.249 57.9525 120.509 58.2434C120.77 58.5344 121.125 58.7324 121.524 58.8086L123.021 67.5086C122.9 67.5899 122.789 67.6835 122.688 67.7875L113.987 65.0975C113.967 64.7056 113.815 64.3371 113.555 64.0462C113.294 63.7553 112.939 63.5572 112.54 63.481L111.043 54.7811C111.164 54.6995 111.275 54.6061 111.376 54.5022Z" fill="#BA99E4"/>
<path d="M140.935 41L131 49.2895L133.065 61.2894L145.065 65L155 56.7105L152.935 44.7105L140.935 41ZM140.051 42.6814C140.417 42.8417 140.835 42.8822 141.241 42.7975C141.647 42.7127 142.021 42.5069 142.309 42.2101L151.009 44.9003C151.016 45.0375 151.039 45.1727 151.078 45.3033L143.874 51.3133C143.508 51.1532 143.092 51.1126 142.686 51.1973C142.28 51.282 141.906 51.4877 141.619 51.7842L132.917 49.0944C132.91 48.9576 132.887 48.8227 132.848 48.6924L140.051 42.6814ZM152.049 46.3458C152.178 46.4018 152.313 46.443 152.452 46.4699L153.949 55.1699C153.603 55.4014 153.338 55.7291 153.192 56.1048C153.046 56.4805 153.028 56.8845 153.139 57.2574L145.936 63.2674C145.807 63.2119 145.672 63.1706 145.533 63.1443L144.034 54.4933C144.38 54.2619 144.646 53.9345 144.791 53.5589C144.937 53.1834 144.956 52.7795 144.845 52.4066L152.049 46.3458ZM132.376 50.5022L141.077 53.1921C141.097 53.584 141.249 53.9525 141.509 54.2434C141.77 54.5344 142.125 54.7324 142.524 54.8086L144.021 63.5086C143.9 63.5899 143.789 63.6835 143.688 63.7875L134.987 61.0975C134.967 60.7056 134.815 60.3371 134.555 60.0462C134.294 59.7553 133.939 59.5572 133.54 59.481L132.043 50.7811C132.164 50.6995 132.275 50.6061 132.376 50.5022Z" fill="#BA99E4"/>
<path d="M117.935 100L108 108.289L110.065 120.289L122.065 124L132 115.71L129.935 103.71L117.935 100ZM117.051 101.681C117.417 101.842 117.835 101.882 118.241 101.797C118.647 101.713 119.021 101.507 119.309 101.21L128.009 103.9C128.016 104.038 128.039 104.173 128.078 104.303L120.874 110.313C120.508 110.153 120.092 110.113 119.686 110.197C119.28 110.282 118.906 110.488 118.619 110.784L109.917 108.094C109.91 107.958 109.887 107.823 109.848 107.692L117.051 101.681ZM129.049 105.346C129.178 105.402 129.313 105.443 129.452 105.47L130.949 114.17C130.603 114.401 130.338 114.729 130.192 115.105C130.046 115.481 130.028 115.884 130.139 116.257L122.936 122.267C122.807 122.212 122.672 122.171 122.533 122.144L121.034 113.493C121.38 113.262 121.646 112.934 121.791 112.559C121.937 112.183 121.956 111.78 121.845 111.407L129.049 105.346ZM109.376 109.502L118.077 112.192C118.097 112.584 118.249 112.953 118.509 113.243C118.77 113.534 119.125 113.732 119.524 113.809L121.021 122.509C120.9 122.59 120.789 122.683 120.688 122.787L111.987 120.098C111.967 119.706 111.815 119.337 111.555 119.046C111.294 118.755 110.939 118.557 110.54 118.481L109.043 109.781C109.164 109.699 109.275 109.606 109.376 109.502Z" fill="#BA99E4"/>
<path d="M111.935 65L102 73.2895L104.065 85.2894L116.065 89L126 80.7105L123.935 68.7105L111.935 65ZM111.051 66.6814C111.417 66.8417 111.835 66.8822 112.241 66.7975C112.647 66.7127 113.021 66.5069 113.309 66.2101L122.009 68.9003C122.016 69.0375 122.039 69.1727 122.078 69.3033L114.874 75.3133C114.508 75.1532 114.092 75.1126 113.686 75.1973C113.28 75.282 112.906 75.4877 112.619 75.7841L103.917 73.0944C103.91 72.9576 103.887 72.8227 103.848 72.6924L111.051 66.6814ZM123.049 70.3458C123.178 70.4018 123.313 70.443 123.452 70.4699L124.949 79.1699C124.603 79.4014 124.338 79.7291 124.192 80.1048C124.046 80.4805 124.028 80.8845 124.139 81.2574L116.936 87.2674C116.807 87.2119 116.672 87.1706 116.533 87.1443L115.034 78.4933C115.38 78.2619 115.646 77.9345 115.791 77.5589C115.937 77.1834 115.956 76.7795 115.845 76.4066L123.049 70.3458ZM103.376 74.5022L112.077 77.1921C112.097 77.5841 112.249 77.9525 112.509 78.2434C112.77 78.5344 113.125 78.7324 113.524 78.8086L115.021 87.5086C114.9 87.5899 114.789 87.6835 114.688 87.7875L105.987 85.0975C105.967 84.7056 105.815 84.3371 105.555 84.0462C105.294 83.7553 104.939 83.5572 104.54 83.481L103.043 74.7811C103.164 74.6995 103.275 74.6061 103.376 74.5022Z" fill="#BA99E4"/>
<path d="M83.935 35L74 43.2895L76.065 55.2894L88.065 59L98 50.7105L95.935 38.7105L83.935 35ZM83.0513 36.6814C83.4173 36.8417 83.835 36.8822 84.2411 36.7975C84.6471 36.7127 85.0213 36.5069 85.3087 36.2101L94.0085 38.9003C94.0156 39.0375 94.0388 39.1727 94.0779 39.3033L86.8741 45.3133C86.5082 45.1532 86.0918 45.1126 85.686 45.1973C85.2801 45.282 84.9061 45.4877 84.6188 45.7842L75.9169 43.0944C75.9098 42.9576 75.8866 42.8227 75.8477 42.6924L83.0513 36.6814ZM95.0488 40.3458C95.1776 40.4018 95.3126 40.443 95.4517 40.4699L96.9488 49.1699C96.603 49.4014 96.3378 49.7291 96.1921 50.1048C96.0464 50.4805 96.0279 50.8845 96.1393 51.2574L88.9356 57.2674C88.8074 57.2119 88.6723 57.1706 88.5328 57.1443L87.0343 48.4933C87.3802 48.2619 87.6455 47.9345 87.7914 47.5589C87.9374 47.1834 87.9561 46.7795 87.8451 46.4066L95.0488 40.3458ZM75.3763 44.5022L84.0772 47.1921C84.0974 47.584 84.2488 47.9525 84.5092 48.2434C84.7696 48.5344 85.1253 48.7324 85.5241 48.8086L87.0212 57.5086C86.8996 57.5899 86.7889 57.6835 86.6876 57.7875L77.9868 55.0975C77.9666 54.7056 77.8151 54.3371 77.5547 54.0462C77.2943 53.7553 76.9386 53.5572 76.5399 53.481L75.0427 44.7811C75.1639 44.6995 75.2751 44.6061 75.3763 44.5022Z" fill="#BA99E4"/>
<path d="M47.935 25L38 33.2895L40.065 45.2894L52.065 49L62 40.7105L59.935 28.7105L47.935 25ZM47.0513 26.6814C47.4173 26.8417 47.835 26.8822 48.2411 26.7975C48.6471 26.7127 49.0213 26.5069 49.3087 26.2101L58.0085 28.9003C58.0156 29.0375 58.0388 29.1727 58.0779 29.3033L50.8741 35.3133C50.5082 35.1532 50.0918 35.1126 49.686 35.1973C49.2801 35.282 48.9061 35.4877 48.6188 35.7842L39.9169 33.0944C39.9098 32.9576 39.8866 32.8227 39.8477 32.6924L47.0513 26.6814ZM59.0488 30.3458C59.1776 30.4018 59.3126 30.443 59.4517 30.4699L60.9488 39.1699C60.603 39.4014 60.3378 39.7291 60.1921 40.1048C60.0464 40.4805 60.0279 40.8845 60.1393 41.2574L52.9356 47.2674C52.8074 47.2119 52.6723 47.1706 52.5328 47.1443L51.0343 38.4933C51.3802 38.2619 51.6455 37.9345 51.7914 37.5589C51.9374 37.1834 51.9561 36.7795 51.8451 36.4066L59.0488 30.3458ZM39.3763 34.5022L48.0772 37.1921C48.0974 37.584 48.2488 37.9525 48.5092 38.2434C48.7696 38.5344 49.1253 38.7324 49.5241 38.8086L51.0212 47.5086C50.8996 47.5899 50.7889 47.6835 50.6876 47.7875L41.9868 45.0975C41.9666 44.7056 41.8151 44.3371 41.5547 44.0462C41.2943 43.7553 40.9386 43.5572 40.5399 43.481L39.0427 34.7811C39.1639 34.6995 39.2751 34.6061 39.3763 34.5022Z" fill="#BA99E4"/>
<path d="M75.935 55L66 63.2895L68.065 75.2894L80.065 79L90 70.7105L87.935 58.7105L75.935 55ZM75.0513 56.6814C75.4173 56.8417 75.835 56.8822 76.2411 56.7975C76.6471 56.7127 77.0213 56.5069 77.3087 56.2101L86.0085 58.9003C86.0156 59.0375 86.0388 59.1727 86.0779 59.3033L78.8741 65.3133C78.5082 65.1532 78.0918 65.1126 77.686 65.1973C77.2801 65.282 76.9061 65.4877 76.6188 65.7841L67.9169 63.0944C67.9098 62.9576 67.8866 62.8227 67.8477 62.6924L75.0513 56.6814ZM87.0488 60.3458C87.1776 60.4018 87.3126 60.443 87.4517 60.4699L88.9488 69.1699C88.603 69.4014 88.3378 69.7291 88.1921 70.1048C88.0464 70.4805 88.0279 70.8845 88.1393 71.2574L80.9356 77.2674C80.8074 77.2119 80.6723 77.1706 80.5328 77.1443L79.0343 68.4933C79.3802 68.2619 79.6455 67.9345 79.7914 67.5589C79.9374 67.1834 79.9561 66.7795 79.8451 66.4066L87.0488 60.3458ZM67.3763 64.5022L76.0772 67.1921C76.0974 67.5841 76.2488 67.9525 76.5092 68.2434C76.7696 68.5344 77.1253 68.7324 77.5241 68.8086L79.0212 77.5086C78.8996 77.5899 78.7889 77.6835 78.6876 77.7875L69.9868 75.0975C69.9666 74.7056 69.8151 74.3371 69.5547 74.0462C69.2943 73.7553 68.9386 73.5572 68.5399 73.481L67.0427 64.7811C67.1639 64.6995 67.2751 64.6061 67.3763 64.5022Z" fill="#BA99E4"/>
<path d="M39.935 45L30 53.2895L32.065 65.2894L44.065 69L54 60.7105L51.935 48.7105L39.935 45ZM39.0513 46.6814C39.4173 46.8417 39.835 46.8822 40.2411 46.7975C40.6471 46.7127 41.0213 46.5069 41.3087 46.2101L50.0085 48.9003C50.0156 49.0375 50.0388 49.1727 50.0779 49.3033L42.8741 55.3133C42.5082 55.1532 42.0918 55.1126 41.686 55.1973C41.2801 55.282 40.9061 55.4877 40.6188 55.7842L31.9169 53.0944C31.9098 52.9576 31.8866 52.8227 31.8477 52.6924L39.0513 46.6814ZM51.0488 50.3458C51.1776 50.4018 51.3126 50.443 51.4517 50.4699L52.9488 59.1699C52.603 59.4014 52.3378 59.7291 52.1921 60.1048C52.0464 60.4805 52.0279 60.8845 52.1393 61.2574L44.9356 67.2674C44.8074 67.2119 44.6723 67.1706 44.5328 67.1443L43.0343 58.4933C43.3802 58.2619 43.6455 57.9345 43.7914 57.5589C43.9374 57.1834 43.9561 56.7795 43.8451 56.4066L51.0488 50.3458ZM31.3763 54.5022L40.0772 57.1921C40.0974 57.584 40.2488 57.9525 40.5092 58.2434C40.7696 58.5344 41.1253 58.7324 41.5241 58.8086L43.0212 67.5086C42.8996 67.5899 42.7889 67.6835 42.6876 67.7875L33.9868 65.0975C33.9666 64.7056 33.8151 64.3371 33.5547 64.0462C33.2943 63.7553 32.9386 63.5572 32.5399 63.481L31.0427 54.7811C31.1639 54.6995 31.2751 54.6061 31.3763 54.5022Z" fill="#BA99E4"/>
<path d="M97.935 50L88 58.2895L90.065 70.2894L102.065 74L112 65.7105L109.935 53.7105L97.935 50ZM97.0513 51.6814C97.4173 51.8417 97.835 51.8822 98.2411 51.7975C98.6471 51.7127 99.0213 51.5069 99.3087 51.2101L108.009 53.9003C108.016 54.0375 108.039 54.1727 108.078 54.3033L100.874 60.3133C100.508 60.1532 100.092 60.1126 99.686 60.1973C99.2801 60.282 98.9061 60.4877 98.6188 60.7842L89.9169 58.0944C89.9098 57.9576 89.8866 57.8227 89.8477 57.6924L97.0513 51.6814ZM109.049 55.3458C109.178 55.4018 109.313 55.443 109.452 55.4699L110.949 64.1699C110.603 64.4014 110.338 64.7291 110.192 65.1048C110.046 65.4805 110.028 65.8845 110.139 66.2574L102.936 72.2674C102.807 72.2119 102.672 72.1706 102.533 72.1443L101.034 63.4933C101.38 63.2619 101.646 62.9345 101.791 62.5589C101.937 62.1834 101.956 61.7795 101.845 61.4066L109.049 55.3458ZM89.3763 59.5022L98.0772 62.1921C98.0974 62.584 98.2488 62.9525 98.5092 63.2434C98.7696 63.5344 99.1253 63.7324 99.5241 63.8086L101.021 72.5086C100.9 72.5899 100.789 72.6835 100.688 72.7875L91.9868 70.0975C91.9666 69.7056 91.8151 69.3371 91.5547 69.0462C91.2943 68.7553 90.9386 68.5572 90.5399 68.481L89.0427 59.7811C89.1639 59.6995 89.2751 59.6061 89.3763 59.5022Z" fill="#BA99E4"/>
<path d="M61.935 40L52 48.2895L54.065 60.2894L66.065 64L76 55.7105L73.935 43.7105L61.935 40ZM61.0513 41.6814C61.4173 41.8417 61.835 41.8822 62.2411 41.7975C62.6471 41.7127 63.0213 41.5069 63.3087 41.2101L72.0085 43.9003C72.0156 44.0375 72.0388 44.1727 72.0779 44.3033L64.8741 50.3133C64.5082 50.1532 64.0918 50.1126 63.686 50.1973C63.2801 50.282 62.9061 50.4877 62.6188 50.7842L53.9169 48.0944C53.9098 47.9576 53.8866 47.8227 53.8477 47.6924L61.0513 41.6814ZM73.0488 45.3458C73.1776 45.4018 73.3126 45.443 73.4517 45.4699L74.9488 54.1699C74.603 54.4014 74.3378 54.7291 74.1921 55.1048C74.0464 55.4805 74.0279 55.8845 74.1393 56.2574L66.9356 62.2674C66.8074 62.2119 66.6723 62.1706 66.5328 62.1443L65.0343 53.4933C65.3802 53.2619 65.6455 52.9345 65.7914 52.5589C65.9374 52.1834 65.9561 51.7795 65.8451 51.4066L73.0488 45.3458ZM53.3763 49.5022L62.0772 52.1921C62.0974 52.584 62.2488 52.9525 62.5092 53.2434C62.7696 53.5344 63.1253 53.7324 63.5241 53.8086L65.0212 62.5086C64.8996 62.5899 64.7889 62.6835 64.6876 62.7875L55.9868 60.0975C55.9666 59.7056 55.8151 59.3371 55.5547 59.0462C55.2943 58.7553 54.9386 58.5572 54.5399 58.481L53.0427 49.7811C53.1639 49.6995 53.2751 49.6061 53.3763 49.5022Z" fill="#BA99E4"/>
<path d="M95.935 105L86 113.289L88.065 125.289L100.065 129L110 120.71L107.935 108.71L95.935 105ZM95.0513 106.681C95.4173 106.842 95.835 106.882 96.2411 106.797C96.6471 106.713 97.0213 106.507 97.3087 106.21L106.009 108.9C106.016 109.038 106.039 109.173 106.078 109.303L98.8741 115.313C98.5082 115.153 98.0918 115.113 97.686 115.197C97.2801 115.282 96.9061 115.488 96.6188 115.784L87.9169 113.094C87.9098 112.958 87.8866 112.823 87.8477 112.692L95.0513 106.681ZM107.049 110.346C107.178 110.402 107.313 110.443 107.452 110.47L108.949 119.17C108.603 119.401 108.338 119.729 108.192 120.105C108.046 120.481 108.028 120.884 108.139 121.257L100.936 127.267C100.807 127.212 100.672 127.171 100.533 127.144L99.0343 118.493C99.3802 118.262 99.6455 117.934 99.7914 117.559C99.9374 117.183 99.9561 116.78 99.8451 116.407L107.049 110.346ZM87.3763 114.502L96.0772 117.192C96.0974 117.584 96.2488 117.953 96.5092 118.243C96.7696 118.534 97.1253 118.732 97.5241 118.809L99.0212 127.509C98.8996 127.59 98.7889 127.683 98.6876 127.787L89.9868 125.098C89.9666 124.706 89.8151 124.337 89.5547 124.046C89.2943 123.755 88.9386 123.557 88.5399 123.481L87.0427 114.781C87.1639 114.699 87.2751 114.606 87.3763 114.502Z" fill="#BA99E4"/>
<path d="M105.935 30L96 38.2895L98.065 50.2894L110.065 54L120 45.7105L117.935 33.7105L105.935 30ZM105.051 31.6814C105.417 31.8417 105.835 31.8822 106.241 31.7975C106.647 31.7127 107.021 31.5069 107.309 31.2101L116.009 33.9003C116.016 34.0375 116.039 34.1727 116.078 34.3033L108.874 40.3133C108.508 40.1532 108.092 40.1126 107.686 40.1973C107.28 40.282 106.906 40.4877 106.619 40.7842L97.9169 38.0944C97.9098 37.9576 97.8866 37.8227 97.8477 37.6924L105.051 31.6814ZM117.049 35.3458C117.178 35.4018 117.313 35.443 117.452 35.4699L118.949 44.1699C118.603 44.4014 118.338 44.7291 118.192 45.1048C118.046 45.4805 118.028 45.8845 118.139 46.2574L110.936 52.2674C110.807 52.2119 110.672 52.1706 110.533 52.1443L109.034 43.4933C109.38 43.2619 109.646 42.9345 109.791 42.5589C109.937 42.1834 109.956 41.7795 109.845 41.4066L117.049 35.3458ZM97.3763 39.5022L106.077 42.1921C106.097 42.584 106.249 42.9525 106.509 43.2434C106.77 43.5344 107.125 43.7324 107.524 43.8086L109.021 52.5086C108.9 52.5899 108.789 52.6835 108.688 52.7875L99.9868 50.0975C99.9666 49.7056 99.8151 49.3371 99.5547 49.0462C99.2943 48.7553 98.9386 48.5572 98.5399 48.481L97.0427 39.7811C97.1639 39.6995 97.2751 39.6061 97.3763 39.5022Z" fill="#BA99E4"/>
<path d="M126.935 26L117 34.2895L119.065 46.2894L131.065 50L141 41.7105L138.935 29.7105L126.935 26ZM126.051 27.6814C126.417 27.8417 126.835 27.8822 127.241 27.7975C127.647 27.7127 128.021 27.5069 128.309 27.2101L137.009 29.9003C137.016 30.0375 137.039 30.1727 137.078 30.3033L129.874 36.3133C129.508 36.1532 129.092 36.1126 128.686 36.1973C128.28 36.282 127.906 36.4877 127.619 36.7842L118.917 34.0944C118.91 33.9576 118.887 33.8227 118.848 33.6924L126.051 27.6814ZM138.049 31.3458C138.178 31.4018 138.313 31.443 138.452 31.4699L139.949 40.1699C139.603 40.4014 139.338 40.7291 139.192 41.1048C139.046 41.4805 139.028 41.8845 139.139 42.2574L131.936 48.2674C131.807 48.2119 131.672 48.1706 131.533 48.1443L130.034 39.4933C130.38 39.2619 130.646 38.9345 130.791 38.5589C130.937 38.1834 130.956 37.7795 130.845 37.4066L138.049 31.3458ZM118.376 35.5022L127.077 38.1921C127.097 38.584 127.249 38.9525 127.509 39.2434C127.77 39.5344 128.125 39.7324 128.524 39.8086L130.021 48.5086C129.9 48.5899 129.789 48.6835 129.688 48.7875L120.987 46.0975C120.967 45.7056 120.815 45.3371 120.555 45.0462C120.294 44.7553 119.939 44.5572 119.54 44.481L118.043 35.7811C118.164 35.6995 118.275 35.6061 118.376 35.5022Z" fill="#BA99E4"/>
<path d="M87.935 125L78 133.289L80.065 145.289L92.065 149L102 140.71L99.935 128.71L87.935 125ZM87.0513 126.681C87.4173 126.842 87.835 126.882 88.2411 126.797C88.6471 126.713 89.0213 126.507 89.3087 126.21L98.0085 128.9C98.0156 129.038 98.0388 129.173 98.0779 129.303L90.8741 135.313C90.5082 135.153 90.0918 135.113 89.686 135.197C89.2801 135.282 88.9061 135.488 88.6188 135.784L79.9169 133.094C79.9098 132.958 79.8866 132.823 79.8477 132.692L87.0513 126.681ZM99.0488 130.346C99.1776 130.402 99.3126 130.443 99.4517 130.47L100.949 139.17C100.603 139.401 100.338 139.729 100.192 140.105C100.046 140.481 100.028 140.884 100.139 141.257L92.9356 147.267C92.8074 147.212 92.6723 147.171 92.5328 147.144L91.0343 138.493C91.3802 138.262 91.6455 137.934 91.7914 137.559C91.9374 137.183 91.9561 136.78 91.8451 136.407L99.0488 130.346ZM79.3763 134.502L88.0772 137.192C88.0974 137.584 88.2488 137.953 88.5092 138.243C88.7696 138.534 89.1253 138.732 89.5241 138.809L91.0212 147.509C90.8996 147.59 90.7889 147.683 90.6876 147.787L81.9868 145.098C81.9666 144.706 81.8151 144.337 81.5547 144.046C81.2943 143.755 80.9386 143.557 80.5399 143.481L79.0427 134.781C79.1639 134.699 79.2751 134.606 79.3763 134.502Z" fill="#BA99E4"/>
<path d="M109.935 120L100 128.289L102.065 140.289L114.065 144L124 135.71L121.935 123.71L109.935 120ZM109.051 121.681C109.417 121.842 109.835 121.882 110.241 121.797C110.647 121.713 111.021 121.507 111.309 121.21L120.009 123.9C120.016 124.038 120.039 124.173 120.078 124.303L112.874 130.313C112.508 130.153 112.092 130.113 111.686 130.197C111.28 130.282 110.906 130.488 110.619 130.784L101.917 128.094C101.91 127.958 101.887 127.823 101.848 127.692L109.051 121.681ZM121.049 125.346C121.178 125.402 121.313 125.443 121.452 125.47L122.949 134.17C122.603 134.401 122.338 134.729 122.192 135.105C122.046 135.481 122.028 135.884 122.139 136.257L114.936 142.267C114.807 142.212 114.672 142.171 114.533 142.144L113.034 133.493C113.38 133.262 113.646 132.934 113.791 132.559C113.937 132.183 113.956 131.78 113.845 131.407L121.049 125.346ZM101.376 129.502L110.077 132.192C110.097 132.584 110.249 132.953 110.509 133.243C110.77 133.534 111.125 133.732 111.524 133.809L113.021 142.509C112.9 142.59 112.789 142.683 112.688 142.787L103.987 140.098C103.967 139.706 103.815 139.337 103.555 139.046C103.294 138.755 102.939 138.557 102.54 138.481L101.043 129.781C101.164 129.699 101.275 129.606 101.376 129.502Z" fill="#BA99E4"/>
<path d="M139.935 95L130 103.289L132.065 115.289L144.065 119L154 110.71L151.935 98.7105L139.935 95ZM139.051 96.6814C139.417 96.8417 139.835 96.8822 140.241 96.7975C140.647 96.7127 141.021 96.5069 141.309 96.2101L150.009 98.9003C150.016 99.0375 150.039 99.1727 150.078 99.3033L142.874 105.313C142.508 105.153 142.092 105.113 141.686 105.197C141.28 105.282 140.906 105.488 140.619 105.784L131.917 103.094C131.91 102.958 131.887 102.823 131.848 102.692L139.051 96.6814ZM151.049 100.346C151.178 100.402 151.313 100.443 151.452 100.47L152.949 109.17C152.603 109.401 152.338 109.729 152.192 110.105C152.046 110.481 152.028 110.884 152.139 111.257L144.936 117.267C144.807 117.212 144.672 117.171 144.533 117.144L143.034 108.493C143.38 108.262 143.646 107.934 143.791 107.559C143.937 107.183 143.956 106.78 143.845 106.407L151.049 100.346ZM131.376 104.502L140.077 107.192C140.097 107.584 140.249 107.953 140.509 108.243C140.77 108.534 141.125 108.732 141.524 108.809L143.021 117.509C142.9 117.59 142.789 117.683 142.688 117.787L133.987 115.098C133.967 114.706 133.815 114.337 133.555 114.046C133.294 113.755 132.939 113.557 132.54 113.481L131.043 104.781C131.164 104.699 131.275 104.606 131.376 104.502Z" fill="#BA99E4"/>
<path d="M133.935 60L124 68.2895L126.065 80.2894L138.065 84L148 75.7105L145.935 63.7105L133.935 60ZM133.051 61.6814C133.417 61.8417 133.835 61.8822 134.241 61.7975C134.647 61.7127 135.021 61.5069 135.309 61.2101L144.009 63.9003C144.016 64.0375 144.039 64.1727 144.078 64.3033L136.874 70.3133C136.508 70.1532 136.092 70.1126 135.686 70.1973C135.28 70.282 134.906 70.4877 134.619 70.7841L125.917 68.0944C125.91 67.9576 125.887 67.8227 125.848 67.6924L133.051 61.6814ZM145.049 65.3458C145.178 65.4018 145.313 65.443 145.452 65.4699L146.949 74.1699C146.603 74.4014 146.338 74.7291 146.192 75.1048C146.046 75.4805 146.028 75.8845 146.139 76.2574L138.936 82.2674C138.807 82.2119 138.672 82.1706 138.533 82.1443L137.034 73.4933C137.38 73.2619 137.646 72.9345 137.791 72.5589C137.937 72.1834 137.956 71.7795 137.845 71.4066L145.049 65.3458ZM125.376 69.5022L134.077 72.1921C134.097 72.5841 134.249 72.9525 134.509 73.2434C134.77 73.5344 135.125 73.7324 135.524 73.8086L137.021 82.5086C136.9 82.5899 136.789 82.6835 136.688 82.7875L127.987 80.0975C127.967 79.7056 127.815 79.3371 127.555 79.0462C127.294 78.7553 126.939 78.5572 126.54 78.481L125.043 69.7811C125.164 69.6995 125.275 69.6061 125.376 69.5022Z" fill="#BA99E4"/>
</g>
</svg>
