<svg width="124" height="124" viewBox="0 0 124 124" fill="none" xmlns="http://www.w3.org/2000/svg">
<g clip-path="url(#clip0_12_56)">
<g style="mix-blend-mode:overlay">
<path d="M39.935 -5L30 3.28948L32.065 15.2894L44.065 19L54 10.7105L51.935 -1.28952L39.935 -5ZM39.0513 -3.31862C39.4173 -3.1583 39.835 -3.11776 40.2411 -3.20253C40.6471 -3.28731 41.0213 -3.49314 41.3087 -3.78985L50.0085 -1.09972C50.0156 -0.962476 50.0388 -0.827291 50.0779 -0.696719L42.8741 5.31335C42.5082 5.15325 42.0918 5.11258 41.686 5.1973C41.2801 5.28203 40.9061 5.48769 40.6188 5.78415L31.9169 3.09445C31.9098 2.95755 31.8866 2.8227 31.8477 2.69244L39.0513 -3.31862ZM51.0488 0.345773C51.1776 0.401758 51.3126 0.442979 51.4517 0.46988L52.9488 9.16986C52.603 9.40144 52.3378 9.72912 52.1921 10.1048C52.0464 10.4805 52.0279 10.8845 52.1393 11.2574L44.9356 17.2674C44.8074 17.2119 44.6723 17.1706 44.5328 17.1444L43.0343 8.49331C43.3802 8.26194 43.6455 7.93446 43.7914 7.55891C43.9374 7.18336 43.9561 6.77951 43.8451 6.40659L51.0488 0.345773ZM31.3763 4.50218L40.0772 7.1921C40.0974 7.58405 40.2488 7.95252 40.5092 8.24345C40.7696 8.53438 41.1253 8.73245 41.5241 8.80859L43.0212 17.5086C42.8996 17.5899 42.7889 17.6835 42.6876 17.7875L33.9868 15.0975C33.9666 14.7056 33.8151 14.3371 33.5547 14.0462C33.2943 13.7553 32.9386 13.5572 32.5399 13.481L31.0427 4.78108C31.1639 4.69948 31.2751 4.60609 31.3763 4.50218Z" fill="#BA99E4"/>
</g>
<g style="mix-blend-mode:overlay">
<path d="M61.935 -10L52 -1.71052L54.065 10.2894L66.065 14L76 5.71046L73.935 -6.28952L61.935 -10ZM61.0513 -8.31862C61.4173 -8.1583 61.835 -8.11776 62.2411 -8.20253C62.6471 -8.28731 63.0213 -8.49314 63.3087 -8.78985L72.0085 -6.09972C72.0156 -5.96248 72.0388 -5.82729 72.0779 -5.69672L64.8741 0.313346C64.5082 0.153247 64.0918 0.112579 63.686 0.197304C63.2801 0.282028 62.9061 0.487688 62.6188 0.784152L53.9169 -1.90555C53.9098 -2.04245 53.8866 -2.1773 53.8477 -2.30756L61.0513 -8.31862ZM73.0488 -4.65423C73.1776 -4.59824 73.3126 -4.55702 73.4517 -4.53012L74.9488 4.16986C74.603 4.40144 74.3378 4.72912 74.1921 5.10482C74.0464 5.48052 74.0279 5.88447 74.1393 6.25737L66.9356 12.2674C66.8074 12.2119 66.6723 12.1706 66.5328 12.1444L65.0343 3.49331C65.3802 3.26194 65.6455 2.93446 65.7914 2.55891C65.9374 2.18336 65.9561 1.77951 65.8451 1.40659L73.0488 -4.65423ZM53.3763 -0.497822L62.0772 2.1921C62.0974 2.58405 62.2488 2.95252 62.5092 3.24345C62.7696 3.53438 63.1253 3.73245 63.5241 3.80859L65.0212 12.5086C64.8996 12.5899 64.7889 12.6835 64.6876 12.7875L55.9868 10.0975C55.9666 9.70559 55.8151 9.33712 55.5547 9.04619C55.2943 8.75526 54.9386 8.55719 54.5399 8.48105L53.0427 -0.218918C53.1639 -0.30052 53.2751 -0.393909 53.3763 -0.497822Z" fill="#BA99E4"/>
</g>
<g style="mix-blend-mode:overlay">
<path d="M117.935 50L108 58.2895L110.065 70.2894L122.065 74L132 65.7105L129.935 53.7105L117.935 50ZM117.051 51.6814C117.417 51.8417 117.835 51.8822 118.241 51.7975C118.647 51.7127 119.021 51.5069 119.309 51.2101L128.009 53.9003C128.016 54.0375 128.039 54.1727 128.078 54.3033L120.874 60.3133C120.508 60.1532 120.092 60.1126 119.686 60.1973C119.28 60.282 118.906 60.4877 118.619 60.7842L109.917 58.0944C109.91 57.9576 109.887 57.8227 109.848 57.6924L117.051 51.6814ZM129.049 55.3458C129.178 55.4018 129.313 55.443 129.452 55.4699L130.949 64.1699C130.603 64.4014 130.338 64.7291 130.192 65.1048C130.046 65.4805 130.028 65.8845 130.139 66.2574L122.936 72.2674C122.807 72.2119 122.672 72.1706 122.533 72.1444L121.034 63.4933C121.38 63.2619 121.646 62.9345 121.791 62.5589C121.937 62.1834 121.956 61.7795 121.845 61.4066L129.049 55.3458ZM109.376 59.5022L118.077 62.1921C118.097 62.584 118.249 62.9525 118.509 63.2434C118.77 63.5344 119.125 63.7324 119.524 63.8086L121.021 72.5086C120.9 72.5899 120.789 72.6835 120.688 72.7875L111.987 70.0975C111.967 69.7056 111.815 69.3371 111.555 69.0462C111.294 68.7553 110.939 68.5572 110.54 68.481L109.043 59.7811C109.164 59.6995 109.275 59.6061 109.376 59.5022Z" fill="#BA99E4"/>
</g>
<g style="mix-blend-mode:overlay">
<path d="M1.93503 39L-8 47.2895L-5.93502 59.2894L6.06499 63L16 54.7105L13.935 42.7105L1.93503 39ZM1.05126 40.6814C1.4173 40.8417 1.83497 40.8822 2.24106 40.7975C2.64715 40.7127 3.02133 40.5069 3.30872 40.2101L12.0085 42.9003C12.0156 43.0375 12.0388 43.1727 12.0779 43.3033L4.87412 49.3133C4.50822 49.1532 4.09183 49.1126 3.68597 49.1973C3.2801 49.282 2.90611 49.4877 2.61878 49.7842L-6.08313 47.0944C-6.09024 46.9576 -6.11343 46.8227 -6.1523 46.6924L1.05126 40.6814ZM13.0488 44.3458C13.1776 44.4018 13.3126 44.443 13.4517 44.4699L14.9488 53.1699C14.603 53.4014 14.3378 53.7291 14.1921 54.1048C14.0464 54.4805 14.0279 54.8845 14.1393 55.2574L6.93559 61.2674C6.80741 61.2119 6.67232 61.1706 6.53285 61.1444L5.03433 52.4933C5.38019 52.2619 5.64554 51.9345 5.79144 51.5589C5.93735 51.1834 5.95615 50.7795 5.84506 50.4066L13.0488 44.3458ZM-6.62368 48.5022L2.07717 51.1921C2.09738 51.584 2.24879 51.9525 2.5092 52.2434C2.76961 52.5344 3.1253 52.7324 3.52407 52.8086L5.02119 61.5086C4.89961 61.5899 4.78888 61.6835 4.68761 61.7875L-4.01324 59.0975C-4.03344 58.7056 -4.18486 58.3371 -4.44526 58.0462C-4.70567 57.7553 -5.06136 57.5572 -5.46014 57.481L-6.95726 48.7811C-6.83607 48.6995 -6.72491 48.6061 -6.62368 48.5022Z" fill="#BA99E4"/>
</g>
<g style="mix-blend-mode:overlay">
<path d="M7.93503 73L-2 81.2895L0.0649755 93.2894L12.065 97L22 88.7105L19.935 76.7105L7.93503 73ZM7.05126 74.6814C7.4173 74.8417 7.83497 74.8822 8.24106 74.7975C8.64715 74.7127 9.02133 74.5069 9.30872 74.2101L18.0085 76.9003C18.0156 77.0375 18.0388 77.1727 18.0779 77.3033L10.8741 83.3133C10.5082 83.1532 10.0918 83.1126 9.68597 83.1973C9.2801 83.282 8.90611 83.4877 8.61878 83.7842L-0.0831348 81.0944C-0.0902351 80.9576 -0.113433 80.8227 -0.152305 80.6924L7.05126 74.6814ZM19.0488 78.3458C19.1776 78.4018 19.3126 78.443 19.4517 78.4699L20.9488 87.1699C20.603 87.4014 20.3378 87.7291 20.1921 88.1048C20.0464 88.4805 20.0279 88.8845 20.1393 89.2574L12.9356 95.2674C12.8074 95.2119 12.6723 95.1706 12.5328 95.1444L11.0343 86.4933C11.3802 86.2619 11.6455 85.9345 11.7914 85.5589C11.9374 85.1834 11.9561 84.7795 11.8451 84.4066L19.0488 78.3458ZM-0.623684 82.5022L8.07717 85.1921C8.09738 85.584 8.24879 85.9525 8.5092 86.2434C8.76961 86.5344 9.1253 86.7324 9.52407 86.8086L11.0212 95.5086C10.8996 95.5899 10.7889 95.6835 10.6876 95.7875L1.98676 93.0975C1.96656 92.7056 1.81514 92.3371 1.55474 92.0462C1.29433 91.7553 0.93864 91.5572 0.539863 91.481L-0.957258 82.7811C-0.836068 82.6995 -0.724907 82.6061 -0.623684 82.5022Z" fill="#BA99E4"/>
</g>
</g>
<g style="mix-blend-mode:color-burn">
<circle cx="61" cy="58" r="48" fill="#24234A"/>
</g>
<g filter="url(#filter0_d_12_56)">
<path d="M85.2233 30.9635L90.0026 76.2118L84.0048 76.8454L79.2254 31.5971L85.2233 30.9635ZM106.33 49.3167L106.849 54.2269L86.5867 56.3671L86.0681 51.4569L106.33 49.3167ZM107.257 28.6362L107.776 33.5464L84.4367 36.0116L83.918 31.1014L107.257 28.6362Z" fill="white"/>
<path d="M85.2233 30.9635L86.2177 30.8585L86.1127 29.864L85.1182 29.9691L85.2233 30.9635ZM90.0026 76.2118L90.1077 77.2063L91.1022 77.1013L90.9971 76.1068L90.0026 76.2118ZM84.0048 76.8454L83.0103 76.9504L83.1153 77.9449L84.1098 77.8398L84.0048 76.8454ZM79.2254 31.5971L79.1203 30.6026L78.1259 30.7076L78.2309 31.7021L79.2254 31.5971ZM106.33 49.3167L107.325 49.2117L107.22 48.2172L106.225 48.3222L106.33 49.3167ZM106.849 54.2269L106.954 55.2214L107.949 55.1163L107.843 54.1218L106.849 54.2269ZM86.5867 56.3671L85.5923 56.4722L85.6973 57.4666L86.6918 57.3616L86.5867 56.3671ZM86.0681 51.4569L85.963 50.4625L84.9686 50.5675L85.0736 51.562L86.0681 51.4569ZM107.257 28.6362L108.251 28.5312L108.146 27.5367L107.152 27.6418L107.257 28.6362ZM107.776 33.5464L107.881 34.5409L108.875 34.4358L108.77 33.4414L107.776 33.5464ZM84.4367 36.0116L83.4422 36.1166L83.5472 37.1111L84.5417 37.0061L84.4367 36.0116ZM83.918 31.1014L83.813 30.1069L82.8185 30.212L82.9236 31.2065L83.918 31.1014ZM84.2288 31.0686L89.0082 76.3169L90.9971 76.1068L86.2177 30.8585L84.2288 31.0686ZM89.8976 75.2174L83.8997 75.8509L84.1098 77.8398L90.1077 77.2063L89.8976 75.2174ZM84.9992 76.7403L80.2198 31.492L78.2309 31.7021L83.0103 76.9504L84.9992 76.7403ZM79.3304 32.5915L85.3283 31.958L85.1182 29.9691L79.1203 30.6026L79.3304 32.5915ZM105.336 49.4217L105.855 54.3319L107.843 54.1218L107.325 49.2117L105.336 49.4217ZM106.744 53.2324L86.4817 55.3726L86.6918 57.3616L106.954 55.2214L106.744 53.2324ZM87.5812 56.2621L87.0626 51.3519L85.0736 51.562L85.5923 56.4722L87.5812 56.2621ZM86.1731 52.4514L106.435 50.3112L106.225 48.3222L85.963 50.4625L86.1731 52.4514ZM106.262 28.7413L106.781 33.6514L108.77 33.4414L108.251 28.5312L106.262 28.7413ZM107.671 32.5519L84.3316 35.0171L84.5417 37.0061L107.881 34.5409L107.671 32.5519ZM85.4311 35.9066L84.9125 30.9964L82.9236 31.2065L83.4422 36.1166L85.4311 35.9066ZM84.0231 32.0959L107.362 29.6307L107.152 27.6418L83.813 30.1069L84.0231 32.0959Z" fill="#87008A"/>
</g>
<g filter="url(#filter1_d_12_56)">
<path d="M32.5624 64.336L20.4734 65.6129L19.9581 60.7338L32.0471 59.4569C34.3882 59.2096 36.2445 58.6364 37.616 57.7374C38.9875 56.8384 39.9347 55.6908 40.4576 54.2949C41.0013 52.8967 41.1834 51.3482 41.0039 49.6493C40.8398 48.0954 40.3437 46.6709 39.5155 45.3757C38.7081 44.0784 37.5355 43.0919 35.9977 42.4164C34.4577 41.7201 32.5172 41.4956 30.176 41.7429L19.4855 42.8721L23.7462 83.2102L17.7483 83.8437L12.969 38.5955L29.6574 36.8327C33.0758 36.4717 36.0284 36.7568 38.515 37.6883C41.0016 38.6198 42.9666 40.0672 44.41 42.0306C45.8512 43.9733 46.7129 46.281 46.9952 48.9536C47.3016 51.8541 46.9519 54.3945 45.9462 56.5747C44.9405 58.7549 43.3136 60.5084 41.0655 61.8352C38.8153 63.1413 35.9809 63.9749 32.5624 64.336Z" fill="white"/>
<path d="M20.4734 65.6129L19.479 65.7179L19.584 66.7124L20.5785 66.6074L20.4734 65.6129ZM19.9581 60.7338L19.853 59.7393L18.8585 59.8444L18.9636 60.8388L19.9581 60.7338ZM40.4576 54.2949L39.5255 53.9324L39.5212 53.9441L40.4576 54.2949ZM39.5155 45.3757L38.6664 45.9041L38.673 45.9144L39.5155 45.3757ZM35.9977 42.4164L35.5857 43.3276L35.5955 43.3319L35.9977 42.4164ZM19.4855 42.8721L19.3804 41.8776L18.386 41.9827L18.491 42.9772L19.4855 42.8721ZM23.7462 83.2102L23.8513 84.2047L24.8457 84.0996L24.7407 83.1052L23.7462 83.2102ZM17.7483 83.8437L16.7539 83.9488L16.8589 84.9433L17.8534 84.8382L17.7483 83.8437ZM12.969 38.5955L12.8639 37.601L11.8694 37.706L11.9745 38.7005L12.969 38.5955ZM44.41 42.0306L43.6043 42.6229L43.6068 42.6264L44.41 42.0306ZM41.0655 61.8352L41.5675 62.7001L41.5738 62.6964L41.0655 61.8352ZM32.4574 63.3415L20.3684 64.6184L20.5785 66.6074L32.6675 65.3305L32.4574 63.3415ZM21.4679 65.5079L20.9525 60.6287L18.9636 60.8388L19.479 65.7179L21.4679 65.5079ZM20.0631 61.7283L32.1521 60.4513L31.942 58.4624L19.853 59.7393L20.0631 61.7283ZM32.1521 60.4513C34.5872 60.1941 36.6145 59.5896 38.1642 58.5737L37.0678 56.9011C35.8745 57.6833 34.1892 58.225 31.942 58.4624L32.1521 60.4513ZM38.1642 58.5737C39.6947 57.5705 40.7891 56.2606 41.3941 54.6457L39.5212 53.9441C39.0803 55.1211 38.2803 56.1063 37.0678 56.9011L38.1642 58.5737ZM41.3896 54.6573C41.9986 53.091 42.1922 51.3795 41.9984 49.5442L40.0094 49.7543C40.1745 51.3168 40.0039 52.7024 39.5256 53.9325L41.3896 54.6573ZM41.9984 49.5442C41.8182 47.8386 41.2712 46.2652 40.358 44.837L38.673 45.9144C39.4161 47.0766 39.8613 48.3522 40.0094 49.7543L41.9984 49.5442ZM40.3645 44.8474C39.4401 43.3619 38.1031 42.249 36.3999 41.5008L35.5955 43.3319C36.9679 43.9348 37.9761 44.7948 38.6665 45.9041L40.3645 44.8474ZM36.4097 41.5052C34.6564 40.7125 32.5226 40.4895 30.071 40.7485L30.281 42.7374C32.5117 42.5018 34.2591 42.7278 35.5857 43.3276L36.4097 41.5052ZM30.071 40.7485L19.3804 41.8776L19.5905 43.8666L30.281 42.7374L30.071 40.7485ZM18.491 42.9772L22.7518 83.3153L24.7407 83.1052L20.4799 42.7671L18.491 42.9772ZM23.6412 82.2157L17.6433 82.8493L17.8534 84.8382L23.8513 84.2047L23.6412 82.2157ZM18.7428 83.7387L13.9634 38.4904L11.9745 38.7005L16.7539 83.9488L18.7428 83.7387ZM13.074 39.5899L29.7624 37.8272L29.5523 35.8383L12.8639 37.601L13.074 39.5899ZM29.7624 37.8272C33.0704 37.4778 35.8593 37.7614 38.1642 38.6248L38.8658 36.7518C36.1974 35.7523 33.0813 35.4655 29.5523 35.8383L29.7624 37.8272ZM38.1642 38.6248C40.4859 39.4945 42.2862 40.83 43.6043 42.6229L45.2157 41.4383C43.647 39.3044 41.5172 37.7451 38.8658 36.7518L38.1642 38.6248ZM43.6068 42.6264C44.93 44.41 45.7351 46.5435 46.0008 49.0586L47.9897 48.8486C47.6908 46.0184 46.7723 43.5366 45.2131 41.4348L43.6068 42.6264ZM46.0008 49.0586C46.2923 51.8184 45.9537 54.1712 45.0382 56.1558L46.8542 56.9936C47.9502 54.6178 48.3109 51.8898 47.9897 48.8486L46.0008 49.0586ZM45.0382 56.1558C44.1251 58.1352 42.6462 59.7411 40.5572 60.974L41.5738 62.6964C43.981 61.2757 45.7559 59.3746 46.8542 56.9936L45.0382 56.1558ZM40.5635 60.9703C38.4674 62.187 35.7787 62.9907 32.4574 63.3415L32.6675 65.3305C36.1831 64.9591 39.1631 64.0957 41.5675 62.7001L40.5635 60.9703Z" fill="#850088"/>
</g>
<g filter="url(#filter2_d_12_56)">
<path d="M77.0409 68.5937C76.9153 67.405 76.6181 66.3759 76.1491 65.5062C75.701 64.6109 74.9831 63.8382 73.9953 63.1884C73.0308 62.5361 71.7204 61.9557 70.0641 61.4472C68.4311 60.9362 66.3773 60.4579 63.9027 60.0122C61.3067 59.5323 58.9468 58.9449 56.823 58.25C54.6967 57.5319 52.8483 56.6548 51.2776 55.6188C49.707 54.5827 48.4558 53.3361 47.5242 51.8791C46.5925 50.422 46.0221 48.7029 45.8128 46.7217C45.6036 44.7405 45.8182 42.8678 46.4567 41.1035C47.0952 39.3391 48.1068 37.7593 49.4913 36.3639C50.8967 34.9428 52.6229 33.7706 54.6701 32.8474C56.7172 31.9241 59.046 31.3246 61.6565 31.0489C65.479 30.6451 68.7964 31.0371 71.6085 32.2248C74.4416 33.3868 76.6817 35.071 78.3288 37.2774C79.9735 39.4604 80.9361 41.8805 81.2168 44.5376L74.5041 45.2466C74.3022 43.3354 73.7159 41.6887 72.745 40.3064C71.7716 38.9009 70.4132 37.866 68.6698 37.2017C66.9238 36.5141 64.7806 36.3045 62.24 36.5728C59.8393 36.8264 57.8963 37.3969 56.411 38.2844C54.9257 39.1719 53.8637 40.2739 53.225 41.5905C52.6096 42.9046 52.3857 44.3541 52.5531 45.9391C52.6663 47.0112 52.9911 47.9668 53.5275 48.8057C54.0848 49.6188 54.8806 50.3479 55.915 50.9928C56.9727 51.6352 58.2807 52.1923 59.8388 52.6641C61.4203 53.1334 63.2907 53.5486 65.4499 53.9097C68.4263 54.4202 71.0162 55.0658 73.2198 55.8464C75.4234 56.6271 77.2676 57.5753 78.7523 58.6912C80.258 59.7812 81.4208 61.0843 82.2409 62.6003C83.0817 64.0905 83.6068 65.8262 83.8161 67.8074C84.0352 69.8818 83.8138 71.8024 83.152 73.5692C82.4902 75.3359 81.4412 76.8962 80.0052 78.2498C78.5691 79.6035 76.79 80.7223 74.668 81.6063C72.5669 82.4646 70.1761 83.0353 67.4957 83.3184C65.1416 83.5671 62.788 83.4857 60.4349 83.0744C58.1051 82.6606 55.939 81.8995 53.9365 80.7912C51.9573 79.6805 50.3074 78.2286 48.9867 76.4355C47.6869 74.6167 46.9028 72.437 46.6345 69.8964L53.3472 69.1874C53.5318 70.9355 54.0286 72.4031 54.8374 73.5904C55.6438 74.7543 56.6728 75.6826 57.9244 76.3753C59.1992 77.0655 60.6034 77.5299 62.137 77.7686C63.6914 77.9815 65.2844 78.0018 66.9159 77.8294C69.27 77.5808 71.2284 77.044 72.791 76.219C74.3536 75.3941 75.4904 74.3313 76.2015 73.0306C76.9359 71.7275 77.2157 70.2486 77.0409 68.5937Z" fill="white"/>
<path d="M76.1491 65.5062L75.2549 65.9538L75.2617 65.9674L75.2689 65.9809L76.1491 65.5062ZM73.9953 63.1884L73.435 64.0168L73.4457 64.0238L73.9953 63.1884ZM70.0641 61.4472L69.7655 62.4016L69.7706 62.4031L70.0641 61.4472ZM63.9027 60.0122L63.7209 60.9956L63.7255 60.9964L63.9027 60.0122ZM56.823 58.25L56.503 59.1975L56.512 59.2005L56.823 58.25ZM49.4913 36.3639L50.2011 37.0683L50.2023 37.0671L49.4913 36.3639ZM71.6085 32.2248L71.2195 33.1461L71.2291 33.1501L71.6085 32.2248ZM78.3288 37.2774L77.5274 37.8756L77.5301 37.8791L78.3288 37.2774ZM81.2168 44.5376L81.3218 45.5321L82.3163 45.427L82.2112 44.4326L81.2168 44.5376ZM74.5041 45.2466L73.5096 45.3517L73.6147 46.3461L74.6092 46.2411L74.5041 45.2466ZM72.745 40.3064L71.9228 40.8758L71.9267 40.8812L72.745 40.3064ZM68.6698 37.2017L68.3033 38.1322L68.3137 38.1362L68.6698 37.2017ZM53.225 41.5905L52.3252 41.154L52.3194 41.1664L53.225 41.5905ZM53.5275 48.8057L52.685 49.3444L52.6936 49.3578L52.7026 49.371L53.5275 48.8057ZM55.915 50.9928L55.3859 51.8414L55.3959 51.8475L55.915 50.9928ZM59.8388 52.6641L59.5491 53.6212L59.5544 53.6228L59.8388 52.6641ZM65.4499 53.9097L65.619 52.9241L65.6149 52.9234L65.4499 53.9097ZM78.7523 58.6912L78.1516 59.4906L78.1587 59.496L78.1659 59.5012L78.7523 58.6912ZM82.2409 62.6003L81.3613 63.076L81.3655 63.0839L81.3699 63.0917L82.2409 62.6003ZM74.668 81.6063L75.0462 82.5321L75.0526 82.5294L74.668 81.6063ZM60.4349 83.0744L60.26 84.059L60.2627 84.0594L60.4349 83.0744ZM53.9365 80.7912L53.4471 81.6633L53.4522 81.6662L53.9365 80.7912ZM48.9867 76.4355L48.1731 77.0169L48.1773 77.0228L48.1816 77.0285L48.9867 76.4355ZM46.6345 69.8964L46.5295 68.9019L45.535 69.007L45.64 70.0014L46.6345 69.8964ZM53.3472 69.1874L54.3416 69.0823L54.2366 68.0879L53.2421 68.1929L53.3472 69.1874ZM54.8374 73.5904L54.011 74.1534L54.0154 74.1599L54.8374 73.5904ZM57.9244 76.3753L57.4401 77.2502L57.4483 77.2546L57.9244 76.3753ZM62.137 77.7686L61.9832 78.7567L61.9923 78.7581L62.0013 78.7593L62.137 77.7686ZM76.2015 73.0306L75.3303 72.5396L75.3241 72.5509L76.2015 73.0306ZM78.0353 68.4887C77.8989 67.197 77.5715 66.0371 77.0293 65.0316L75.2689 65.9809C75.6646 66.7146 75.9317 67.613 76.0464 68.6987L78.0353 68.4887ZM77.0434 65.0587C76.5033 63.9796 75.6529 63.0819 74.5449 62.353L73.4457 64.0238C74.3132 64.5946 74.8987 65.2421 75.2549 65.9538L77.0434 65.0587ZM74.5555 62.3601C73.4794 61.6323 72.0672 61.0161 70.3576 60.4912L69.7706 62.4031C71.3737 62.8953 72.5822 63.4399 73.4351 64.0167L74.5555 62.3601ZM70.3627 60.4928C68.6762 59.9651 66.5784 59.478 64.08 59.0281L63.7255 60.9964C66.1761 61.4377 68.186 61.9073 69.7655 62.4016L70.3627 60.4928ZM64.0845 59.0289C61.5246 58.5556 59.2087 57.9784 57.1339 57.2996L56.512 59.2005C58.6849 59.9113 61.0888 60.5089 63.7209 60.9956L64.0845 59.0289ZM57.143 57.3026C55.083 56.6069 53.315 55.7647 51.8283 54.784L50.727 56.4535C52.3816 57.5449 54.3105 58.457 56.503 59.1975L57.143 57.3026ZM51.8283 54.784C50.3642 53.8182 49.2164 52.6693 48.3667 51.3404L46.6817 52.4178C47.6952 54.0029 49.0498 55.3472 50.727 56.4535L51.8283 54.784ZM48.3667 51.3404C47.5305 50.0326 47.0027 48.4669 46.8073 46.6167L44.8184 46.8267C45.0414 48.9388 45.6545 50.8113 46.6817 52.4178L48.3667 51.3404ZM46.8073 46.6167C46.6129 44.7766 46.8132 43.0569 47.397 41.4438L45.5164 40.7631C44.8232 42.6786 44.5942 44.7045 44.8184 46.8267L46.8073 46.6167ZM47.397 41.4438C47.9837 39.8226 48.914 38.3655 50.2011 37.0683L48.7814 35.6596C47.2995 37.1531 46.2067 38.8557 45.5164 40.7631L47.397 41.4438ZM50.2023 37.0671C51.5114 35.7434 53.1322 34.638 55.0812 33.759L54.259 31.9358C52.1136 32.9033 50.282 34.1423 48.7803 35.6608L50.2023 37.0671ZM55.0812 33.759C57.0166 32.8861 59.2394 32.3097 61.7616 32.0433L61.5515 30.0544C58.8527 30.3395 56.4179 30.9621 54.259 31.9358L55.0812 33.759ZM61.7616 32.0433C65.4586 31.6528 68.5985 32.0391 71.2195 33.1461L71.9976 31.3036C68.9942 30.0351 65.4994 29.6374 61.5515 30.0544L61.7616 32.0433ZM71.2291 33.1501C73.9138 34.2512 76.0006 35.8303 77.5275 37.8756L79.1301 36.6791C77.3628 34.3117 74.9694 32.5224 71.988 31.2996L71.2291 33.1501ZM77.5301 37.8791C79.0683 39.9209 79.9611 42.1701 80.2223 44.6426L82.2112 44.4326C81.9111 41.5909 80.8786 39 79.1275 36.6756L77.5301 37.8791ZM81.1117 43.5431L74.3991 44.2522L74.6092 46.2411L81.3218 45.5321L81.1117 43.5431ZM75.4986 45.1416C75.2813 43.085 74.6446 41.2712 73.5633 39.7317L71.9267 40.8812C72.7871 42.1062 73.3231 43.5858 73.5096 45.3517L75.4986 45.1416ZM73.5671 39.7371C72.4683 38.1504 70.9399 36.9965 69.0258 36.2672L68.3137 38.1362C69.8866 38.7354 71.075 39.6514 71.9229 40.8758L73.5671 39.7371ZM69.0362 36.2713C67.0963 35.5073 64.7805 35.2989 62.135 35.5784L62.345 37.5673C64.7806 37.31 66.7513 37.5209 68.3033 38.1321L69.0362 36.2713ZM62.135 35.5784C59.6434 35.8415 57.5469 36.4408 55.8981 37.426L56.9239 39.1429C58.2457 38.3531 60.0352 37.8113 62.345 37.5673L62.135 35.5784ZM55.8981 37.426C54.2765 38.3949 53.0635 39.6322 52.3253 41.154L54.1247 42.027C54.6638 40.9157 55.5748 39.949 56.9239 39.1429L55.8981 37.426ZM52.3194 41.1664C51.6193 42.6615 51.374 44.2964 51.5586 46.0441L53.5475 45.834C53.3973 44.4119 53.6 43.1477 54.1306 42.0146L52.3194 41.1664ZM51.5586 46.0441C51.6868 47.2576 52.0582 48.364 52.685 49.3444L54.37 48.267C53.9241 47.5695 53.6458 46.7648 53.5475 45.834L51.5586 46.0441ZM52.7026 49.371C53.354 50.3215 54.2614 51.1402 55.386 51.8414L56.4441 50.1442C55.4998 49.5555 54.8155 48.9162 54.3524 48.2404L52.7026 49.371ZM55.3959 51.8475C56.5439 52.5448 57.9341 53.1322 59.5491 53.6212L60.1286 51.707C58.6272 51.2524 57.4015 50.7257 56.4342 50.1381L55.3959 51.8475ZM59.5544 53.6228C61.1854 54.1067 63.0975 54.5302 65.285 54.896L65.6149 52.9234C63.4838 52.567 61.6553 52.16 60.1233 51.7054L59.5544 53.6228ZM65.2809 54.8953C68.2164 55.3988 70.7488 56.0319 72.8859 56.789L73.5537 54.9038C71.2837 54.0996 68.6361 53.4416 65.619 52.9241L65.2809 54.8953ZM72.8859 56.789C75.0173 57.5441 76.7658 58.4492 78.1516 59.4906L79.3531 57.8918C77.7693 56.7015 75.8294 55.7101 73.5537 54.9038L72.8859 56.789ZM78.1659 59.5012C79.5597 60.5103 80.6182 61.7022 81.3613 63.076L83.1204 62.1245C82.2235 60.4664 80.9563 59.0522 79.3388 57.8812L78.1659 59.5012ZM81.3699 63.0917C82.1335 64.445 82.6244 66.045 82.8216 67.9124L84.8105 67.7023C84.5893 65.6074 84.0299 63.736 83.1118 62.1088L81.3699 63.0917ZM82.8216 67.9124C83.0261 69.849 82.8174 71.6118 82.2155 73.2184L84.0884 73.9199C84.8103 71.993 85.0442 69.9146 84.8105 67.7023L82.8216 67.9124ZM82.2155 73.2184C81.6098 74.8354 80.6494 76.2684 79.3192 77.5221L80.6911 78.9775C82.2331 77.524 83.3705 75.8365 84.0884 73.9199L82.2155 73.2184ZM79.3192 77.5221C77.9842 78.7806 76.3121 79.8381 74.2835 80.6833L75.0526 82.5294C77.268 81.6065 79.154 80.4264 80.6911 78.9775L79.3192 77.5221ZM74.2899 80.6806C72.2906 81.4973 69.9943 82.049 67.3907 82.324L67.6007 84.3129C70.3579 84.0217 72.8431 83.432 75.0462 82.5321L74.2899 80.6806ZM67.3907 82.324C65.1298 82.5628 62.8695 82.4848 60.6071 82.0893L60.2627 84.0594C62.7065 84.4866 65.1534 84.5714 67.6007 84.3129L67.3907 82.324ZM60.6098 82.0898C58.3847 81.6946 56.3236 80.9694 54.4207 79.9163L53.4522 81.6662C55.5544 82.8296 57.8255 83.6266 60.26 84.059L60.6098 82.0898ZM54.4259 79.9192C52.5681 78.8766 51.0267 77.5189 49.7919 75.8425L48.1816 77.0285C49.5881 78.9382 51.3465 80.4844 53.4471 81.6633L54.4259 79.9192ZM49.8003 75.8541C48.6145 74.1948 47.8818 72.185 47.629 69.7914L45.64 70.0014C45.9239 72.6889 46.7593 75.0385 48.1731 77.0169L49.8003 75.8541ZM46.7395 70.8909L53.4522 70.1818L53.2421 68.1929L46.5295 68.9019L46.7395 70.8909ZM52.3527 69.2924C52.5508 71.1684 53.0906 72.8024 54.011 74.1534L55.6638 73.0273C54.9665 72.0038 54.5128 70.7025 54.3416 69.0823L52.3527 69.2924ZM54.0154 74.1599C54.9104 75.4515 56.0554 76.4838 57.4401 77.2502L58.4086 75.5003C57.2902 74.8813 56.3773 74.057 55.6594 73.0208L54.0154 74.1599ZM57.4483 77.2546C58.8305 78.003 60.3448 78.5017 61.9832 78.7567L62.2908 76.7805C60.8621 76.5581 59.568 76.128 58.4005 75.4959L57.4483 77.2546ZM62.0013 78.7593C63.6391 78.9837 65.313 79.0043 67.021 78.8239L66.8109 76.835C65.2558 76.9992 63.7437 76.9793 62.2727 76.7778L62.0013 78.7593ZM67.021 78.8239C69.4611 78.5662 71.5516 78.0041 73.2579 77.1034L72.3241 75.3347C70.9051 76.0838 69.0789 76.5954 66.8109 76.835L67.021 78.8239ZM73.2579 77.1034C74.9602 76.2046 76.2569 75.014 77.0789 73.5103L75.3241 72.5509C74.724 73.6485 73.747 74.5835 72.3241 75.3347L73.2579 77.1034ZM77.0727 73.5216C77.9205 72.0173 78.2294 70.3259 78.0353 68.4887L76.0464 68.6987C76.2019 70.1713 75.9513 71.4378 75.3303 72.5397L77.0727 73.5216Z" fill="#850088"/>
</g>
<g style="mix-blend-mode:overlay">
<path d="M59.935 45L50 53.2895L52.065 65.2894L64.065 69L74 60.7105L71.935 48.7105L59.935 45ZM59.0513 46.6814C59.4173 46.8417 59.835 46.8822 60.2411 46.7975C60.6471 46.7127 61.0213 46.5069 61.3087 46.2101L70.0085 48.9003C70.0156 49.0375 70.0388 49.1727 70.0779 49.3033L62.8741 55.3133C62.5082 55.1532 62.0918 55.1126 61.686 55.1973C61.2801 55.282 60.9061 55.4877 60.6188 55.7842L51.9169 53.0944C51.9098 52.9576 51.8866 52.8227 51.8477 52.6924L59.0513 46.6814ZM71.0488 50.3458C71.1776 50.4018 71.3126 50.443 71.4517 50.4699L72.9488 59.1699C72.603 59.4014 72.3378 59.7291 72.1921 60.1048C72.0464 60.4805 72.0279 60.8845 72.1393 61.2574L64.9356 67.2674C64.8074 67.2119 64.6723 67.1706 64.5328 67.1444L63.0343 58.4933C63.3802 58.2619 63.6455 57.9345 63.7914 57.5589C63.9374 57.1834 63.9561 56.7795 63.8451 56.4066L71.0488 50.3458ZM51.3763 54.5022L60.0772 57.1921C60.0974 57.584 60.2488 57.9525 60.5092 58.2434C60.7696 58.5344 61.1253 58.7324 61.5241 58.8086L63.0212 67.5086C62.8996 67.5899 62.7889 67.6835 62.6876 67.7875L53.9868 65.0975C53.9666 64.7056 53.8151 64.3371 53.5547 64.0462C53.2943 63.7553 52.9386 63.5572 52.5399 63.481L51.0427 54.7811C51.1639 54.6995 51.2751 54.6061 51.3763 54.5022Z" fill="#BA99E4"/>
</g>
<g style="mix-blend-mode:overlay">
<path d="M23.935 34L14 42.2895L16.065 54.2894L28.065 58L38 49.7105L35.935 37.7105L23.935 34ZM23.0513 35.6814C23.4173 35.8417 23.835 35.8822 24.2411 35.7975C24.6471 35.7127 25.0213 35.5069 25.3087 35.2101L34.0085 37.9003C34.0156 38.0375 34.0388 38.1727 34.0779 38.3033L26.8741 44.3133C26.5082 44.1532 26.0918 44.1126 25.686 44.1973C25.2801 44.282 24.9061 44.4877 24.6188 44.7842L15.9169 42.0944C15.9098 41.9576 15.8866 41.8227 15.8477 41.6924L23.0513 35.6814ZM35.0488 39.3458C35.1776 39.4018 35.3126 39.443 35.4517 39.4699L36.9488 48.1699C36.603 48.4014 36.3378 48.7291 36.1921 49.1048C36.0464 49.4805 36.0279 49.8845 36.1393 50.2574L28.9356 56.2674C28.8074 56.2119 28.6723 56.1706 28.5328 56.1444L27.0343 47.4933C27.3802 47.2619 27.6455 46.9345 27.7914 46.5589C27.9374 46.1834 27.9561 45.7795 27.8451 45.4066L35.0488 39.3458ZM15.3763 43.5022L24.0772 46.1921C24.0974 46.584 24.2488 46.9525 24.5092 47.2434C24.7696 47.5344 25.1253 47.7324 25.5241 47.8086L27.0212 56.5086C26.8996 56.5899 26.7889 56.6835 26.6876 56.7875L17.9868 54.0975C17.9666 53.7056 17.8151 53.3371 17.5547 53.0462C17.2943 52.7553 16.9386 52.5572 16.5399 52.481L15.0427 43.7811C15.1639 43.6995 15.2751 43.6061 15.3763 43.5022Z" fill="#BA99E4"/>
</g>
<g style="mix-blend-mode:overlay">
<path d="M29.935 69L20 77.2895L22.065 89.2894L34.065 93L44 84.7105L41.935 72.7105L29.935 69ZM29.0513 70.6814C29.4173 70.8417 29.835 70.8822 30.2411 70.7975C30.6471 70.7127 31.0213 70.5069 31.3087 70.2101L40.0085 72.9003C40.0156 73.0375 40.0388 73.1727 40.0779 73.3033L32.8741 79.3133C32.5082 79.1532 32.0918 79.1126 31.686 79.1973C31.2801 79.282 30.9061 79.4877 30.6188 79.7842L21.9169 77.0944C21.9098 76.9576 21.8866 76.8227 21.8477 76.6924L29.0513 70.6814ZM41.0488 74.3458C41.1776 74.4018 41.3126 74.443 41.4517 74.4699L42.9488 83.1699C42.603 83.4014 42.3378 83.7291 42.1921 84.1048C42.0464 84.4805 42.0279 84.8845 42.1393 85.2574L34.9356 91.2674C34.8074 91.2119 34.6723 91.1706 34.5328 91.1444L33.0343 82.4933C33.3802 82.2619 33.6455 81.9345 33.7914 81.5589C33.9374 81.1834 33.9561 80.7795 33.8451 80.4066L41.0488 74.3458ZM21.3763 78.5022L30.0772 81.1921C30.0974 81.584 30.2488 81.9525 30.5092 82.2434C30.7696 82.5344 31.1253 82.7324 31.5241 82.8086L33.0212 91.5086C32.8996 91.5899 32.7889 91.6835 32.6876 91.7875L23.9868 89.0975C23.9666 88.7056 23.8151 88.3371 23.5547 88.0462C23.2943 87.7553 22.9386 87.5572 22.5399 87.481L21.0427 78.7811C21.1639 78.6995 21.2751 78.6061 21.3763 78.5022Z" fill="#BA99E4"/>
</g>
<g style="mix-blend-mode:overlay">
<path d="M51.935 65L42 73.2895L44.065 85.2894L56.065 89L66 80.7105L63.935 68.7105L51.935 65ZM51.0513 66.6814C51.4173 66.8417 51.835 66.8822 52.2411 66.7975C52.6471 66.7127 53.0213 66.5069 53.3087 66.2101L62.0085 68.9003C62.0156 69.0375 62.0388 69.1727 62.0779 69.3033L54.8741 75.3133C54.5082 75.1532 54.0918 75.1126 53.686 75.1973C53.2801 75.282 52.9061 75.4877 52.6188 75.7842L43.9169 73.0944C43.9098 72.9576 43.8866 72.8227 43.8477 72.6924L51.0513 66.6814ZM63.0488 70.3458C63.1776 70.4018 63.3126 70.443 63.4517 70.4699L64.9488 79.1699C64.603 79.4014 64.3378 79.7291 64.1921 80.1048C64.0464 80.4805 64.0279 80.8845 64.1393 81.2574L56.9356 87.2674C56.8074 87.2119 56.6723 87.1706 56.5328 87.1444L55.0343 78.4933C55.3802 78.2619 55.6455 77.9345 55.7914 77.5589C55.9374 77.1834 55.9561 76.7795 55.8451 76.4066L63.0488 70.3458ZM43.3763 74.5022L52.0772 77.1921C52.0974 77.584 52.2488 77.9525 52.5092 78.2434C52.7696 78.5344 53.1253 78.7324 53.5241 78.8086L55.0212 87.5086C54.8996 87.5899 54.7889 87.6835 54.6876 87.7875L45.9868 85.0975C45.9666 84.7056 45.8151 84.3371 45.5547 84.0462C45.2943 83.7553 44.9386 83.5572 44.5399 83.481L43.0427 74.7811C43.1639 74.6995 43.2751 74.6061 43.3763 74.5022Z" fill="#BA99E4"/>
</g>
<g style="mix-blend-mode:overlay">
<path d="M15.935 54L6 62.2895L8.06498 74.2894L20.065 78L30 69.7105L27.935 57.7105L15.935 54ZM15.0513 55.6814C15.4173 55.8417 15.835 55.8822 16.2411 55.7975C16.6471 55.7127 17.0213 55.5069 17.3087 55.2101L26.0085 57.9003C26.0156 58.0375 26.0388 58.1727 26.0779 58.3033L18.8741 64.3133C18.5082 64.1532 18.0918 64.1126 17.686 64.1973C17.2801 64.282 16.9061 64.4877 16.6188 64.7842L7.91687 62.0944C7.90976 61.9576 7.88657 61.8227 7.8477 61.6924L15.0513 55.6814ZM27.0488 59.3458C27.1776 59.4018 27.3126 59.443 27.4517 59.4699L28.9488 68.1699C28.603 68.4014 28.3378 68.7291 28.1921 69.1048C28.0464 69.4805 28.0279 69.8845 28.1393 70.2574L20.9356 76.2674C20.8074 76.2119 20.6723 76.1706 20.5328 76.1444L19.0343 67.4933C19.3802 67.2619 19.6455 66.9345 19.7914 66.5589C19.9374 66.1834 19.9561 65.7795 19.8451 65.4066L27.0488 59.3458ZM7.37632 63.5022L16.0772 66.1921C16.0974 66.584 16.2488 66.9525 16.5092 67.2434C16.7696 67.5344 17.1253 67.7324 17.5241 67.8086L19.0212 76.5086C18.8996 76.5899 18.7889 76.6835 18.6876 76.7875L9.98676 74.0975C9.96656 73.7056 9.81514 73.3371 9.55474 73.0462C9.29433 72.7553 8.93864 72.5572 8.53986 72.481L7.04274 63.7811C7.16393 63.6995 7.27509 63.6061 7.37632 63.5022Z" fill="#BA99E4"/>
</g>
<g style="mix-blend-mode:overlay">
<path d="M21.935 89L12 97.2895L14.065 109.289L26.065 113L36 104.71L33.935 92.7105L21.935 89ZM21.0513 90.6814C21.4173 90.8417 21.835 90.8822 22.2411 90.7975C22.6471 90.7127 23.0213 90.5069 23.3087 90.2101L32.0085 92.9003C32.0156 93.0375 32.0388 93.1727 32.0779 93.3033L24.8741 99.3133C24.5082 99.1532 24.0918 99.1126 23.686 99.1973C23.2801 99.282 22.9061 99.4877 22.6188 99.7842L13.9169 97.0944C13.9098 96.9576 13.8866 96.8227 13.8477 96.6924L21.0513 90.6814ZM33.0488 94.3458C33.1776 94.4018 33.3126 94.443 33.4517 94.4699L34.9488 103.17C34.603 103.401 34.3378 103.729 34.1921 104.105C34.0464 104.481 34.0279 104.884 34.1393 105.257L26.9356 111.267C26.8074 111.212 26.6723 111.171 26.5328 111.144L25.0343 102.493C25.3802 102.262 25.6455 101.934 25.7914 101.559C25.9374 101.183 25.9561 100.78 25.8451 100.407L33.0488 94.3458ZM13.3763 98.5022L22.0772 101.192C22.0974 101.584 22.2488 101.953 22.5092 102.243C22.7696 102.534 23.1253 102.732 23.5241 102.809L25.0212 111.509C24.8996 111.59 24.7889 111.683 24.6876 111.787L15.9868 109.098C15.9666 108.706 15.8151 108.337 15.5547 108.046C15.2943 107.755 14.9386 107.557 14.5399 107.481L13.0427 98.7811C13.1639 98.6995 13.2751 98.6061 13.3763 98.5022Z" fill="#BA99E4"/>
</g>
<g style="mix-blend-mode:overlay">
<path d="M73.935 60L64 68.2895L66.065 80.2894L78.065 84L88 75.7105L85.935 63.7105L73.935 60ZM73.0513 61.6814C73.4173 61.8417 73.835 61.8822 74.2411 61.7975C74.6471 61.7127 75.0213 61.5069 75.3087 61.2101L84.0085 63.9003C84.0156 64.0375 84.0388 64.1727 84.0779 64.3033L76.8741 70.3133C76.5082 70.1532 76.0918 70.1126 75.686 70.1973C75.2801 70.282 74.9061 70.4877 74.6188 70.7842L65.9169 68.0944C65.9098 67.9576 65.8866 67.8227 65.8477 67.6924L73.0513 61.6814ZM85.0488 65.3458C85.1776 65.4018 85.3126 65.443 85.4517 65.4699L86.9488 74.1699C86.603 74.4014 86.3378 74.7291 86.1921 75.1048C86.0464 75.4805 86.0279 75.8845 86.1393 76.2574L78.9356 82.2674C78.8074 82.2119 78.6723 82.1706 78.5328 82.1444L77.0343 73.4933C77.3802 73.2619 77.6455 72.9345 77.7914 72.5589C77.9374 72.1834 77.9561 71.7795 77.8451 71.4066L85.0488 65.3458ZM65.3763 69.5022L74.0772 72.1921C74.0974 72.584 74.2488 72.9525 74.5092 73.2434C74.7696 73.5344 75.1253 73.7324 75.5241 73.8086L77.0212 82.5086C76.8996 82.5899 76.7889 82.6835 76.6876 82.7875L67.9868 80.0975C67.9666 79.7056 67.8151 79.3371 67.5547 79.0462C67.2943 78.7553 66.9386 78.5572 66.5399 78.481L65.0427 69.7811C65.1639 69.6995 65.2751 69.6061 65.3763 69.5022Z" fill="#BA99E4"/>
</g>
<g style="mix-blend-mode:overlay">
<path d="M37.935 49L28 57.2895L30.065 69.2894L42.065 73L52 64.7105L49.935 52.7105L37.935 49ZM37.0513 50.6814C37.4173 50.8417 37.835 50.8822 38.2411 50.7975C38.6471 50.7127 39.0213 50.5069 39.3087 50.2101L48.0085 52.9003C48.0156 53.0375 48.0388 53.1727 48.0779 53.3033L40.8741 59.3133C40.5082 59.1532 40.0918 59.1126 39.686 59.1973C39.2801 59.282 38.9061 59.4877 38.6188 59.7842L29.9169 57.0944C29.9098 56.9576 29.8866 56.8227 29.8477 56.6924L37.0513 50.6814ZM49.0488 54.3458C49.1776 54.4018 49.3126 54.443 49.4517 54.4699L50.9488 63.1699C50.603 63.4014 50.3378 63.7291 50.1921 64.1048C50.0464 64.4805 50.0279 64.8845 50.1393 65.2574L42.9356 71.2674C42.8074 71.2119 42.6723 71.1706 42.5328 71.1444L41.0343 62.4933C41.3802 62.2619 41.6455 61.9345 41.7914 61.5589C41.9374 61.1834 41.9561 60.7795 41.8451 60.4066L49.0488 54.3458ZM29.3763 58.5022L38.0772 61.1921C38.0974 61.584 38.2488 61.9525 38.5092 62.2434C38.7696 62.5344 39.1253 62.7324 39.5241 62.8086L41.0212 71.5086C40.8996 71.5899 40.7889 71.6835 40.6876 71.7875L31.9868 69.0975C31.9666 68.7056 31.8151 68.3371 31.5547 68.0462C31.2943 67.7553 30.9386 67.5572 30.5399 67.481L29.0427 58.7811C29.1639 58.6995 29.2751 58.6061 29.3763 58.5022Z" fill="#BA99E4"/>
</g>
<g style="mix-blend-mode:overlay">
<path d="M43.935 84L34 92.2895L36.065 104.289L48.065 108L58 99.7105L55.935 87.7105L43.935 84ZM43.0513 85.6814C43.4173 85.8417 43.835 85.8822 44.2411 85.7975C44.6471 85.7127 45.0213 85.5069 45.3087 85.2101L54.0085 87.9003C54.0156 88.0375 54.0388 88.1727 54.0779 88.3033L46.8741 94.3133C46.5082 94.1532 46.0918 94.1126 45.686 94.1973C45.2801 94.282 44.9061 94.4877 44.6188 94.7842L35.9169 92.0944C35.9098 91.9576 35.8866 91.8227 35.8477 91.6924L43.0513 85.6814ZM55.0488 89.3458C55.1776 89.4018 55.3126 89.443 55.4517 89.4699L56.9488 98.1699C56.603 98.4014 56.3378 98.7291 56.1921 99.1048C56.0464 99.4805 56.0279 99.8845 56.1393 100.257L48.9356 106.267C48.8074 106.212 48.6723 106.171 48.5328 106.144L47.0343 97.4933C47.3802 97.2619 47.6455 96.9345 47.7914 96.5589C47.9374 96.1834 47.9561 95.7795 47.8451 95.4066L55.0488 89.3458ZM35.3763 93.5022L44.0772 96.1921C44.0974 96.584 44.2488 96.9525 44.5092 97.2434C44.7696 97.5344 45.1253 97.7324 45.5241 97.8086L47.0212 106.509C46.8996 106.59 46.7889 106.683 46.6876 106.787L37.9868 104.098C37.9666 103.706 37.8151 103.337 37.5547 103.046C37.2943 102.755 36.9386 102.557 36.5399 102.481L35.0427 93.7811C35.1639 93.6995 35.2751 93.6061 35.3763 93.5022Z" fill="#BA99E4"/>
</g>
<g style="mix-blend-mode:overlay">
<path d="M95.935 55L86 63.2895L88.065 75.2894L100.065 79L110 70.7105L107.935 58.7105L95.935 55ZM95.0513 56.6814C95.4173 56.8417 95.835 56.8822 96.2411 56.7975C96.6471 56.7127 97.0213 56.5069 97.3087 56.2101L106.009 58.9003C106.016 59.0375 106.039 59.1727 106.078 59.3033L98.8741 65.3133C98.5082 65.1532 98.0918 65.1126 97.686 65.1973C97.2801 65.282 96.9061 65.4877 96.6188 65.7842L87.9169 63.0944C87.9098 62.9576 87.8866 62.8227 87.8477 62.6924L95.0513 56.6814ZM107.049 60.3458C107.178 60.4018 107.313 60.443 107.452 60.4699L108.949 69.1699C108.603 69.4014 108.338 69.7291 108.192 70.1048C108.046 70.4805 108.028 70.8845 108.139 71.2574L100.936 77.2674C100.807 77.2119 100.672 77.1706 100.533 77.1444L99.0343 68.4933C99.3802 68.2619 99.6455 67.9345 99.7914 67.5589C99.9374 67.1834 99.9561 66.7795 99.8451 66.4066L107.049 60.3458ZM87.3763 64.5022L96.0772 67.1921C96.0974 67.584 96.2488 67.9525 96.5092 68.2434C96.7696 68.5344 97.1253 68.7324 97.5241 68.8086L99.0212 77.5086C98.8996 77.5899 98.7889 77.6835 98.6876 77.7875L89.9868 75.0975C89.9666 74.7056 89.8151 74.3371 89.5547 74.0462C89.2943 73.7553 88.9386 73.5572 88.5399 73.481L87.0427 64.7811C87.1639 64.6995 87.2751 64.6061 87.3763 64.5022Z" fill="#BA99E4"/>
</g>
<g style="mix-blend-mode:overlay">
<path d="M89.935 20L80 28.2895L82.065 40.2894L94.065 44L104 35.7105L101.935 23.7105L89.935 20ZM89.0513 21.6814C89.4173 21.8417 89.835 21.8822 90.2411 21.7975C90.6471 21.7127 91.0213 21.5069 91.3087 21.2101L100.009 23.9003C100.016 24.0375 100.039 24.1727 100.078 24.3033L92.8741 30.3133C92.5082 30.1532 92.0918 30.1126 91.686 30.1973C91.2801 30.282 90.9061 30.4877 90.6188 30.7842L81.9169 28.0944C81.9098 27.9576 81.8866 27.8227 81.8477 27.6924L89.0513 21.6814ZM101.049 25.3458C101.178 25.4018 101.313 25.443 101.452 25.4699L102.949 34.1699C102.603 34.4014 102.338 34.7291 102.192 35.1048C102.046 35.4805 102.028 35.8845 102.139 36.2574L94.9356 42.2674C94.8074 42.2119 94.6723 42.1706 94.5328 42.1444L93.0343 33.4933C93.3802 33.2619 93.6455 32.9345 93.7914 32.5589C93.9374 32.1834 93.9561 31.7795 93.8451 31.4066L101.049 25.3458ZM81.3763 29.5022L90.0772 32.1921C90.0974 32.584 90.2488 32.9525 90.5092 33.2434C90.7696 33.5344 91.1253 33.7324 91.5241 33.8086L93.0212 42.5086C92.8996 42.5899 92.7889 42.6835 92.6876 42.7875L83.9868 40.0975C83.9666 39.7056 83.8151 39.3371 83.5547 39.0462C83.2943 38.7553 82.9386 38.5572 82.5399 38.481L81.0427 29.7811C81.1639 29.6995 81.2751 29.6061 81.3763 29.5022Z" fill="#BA99E4"/>
</g>
<g style="mix-blend-mode:overlay">
<path d="M87.935 75L78 83.2895L80.065 95.2894L92.065 99L102 90.7105L99.935 78.7105L87.935 75ZM87.0513 76.6814C87.4173 76.8417 87.835 76.8822 88.2411 76.7975C88.6471 76.7127 89.0213 76.5069 89.3087 76.2101L98.0085 78.9003C98.0156 79.0375 98.0388 79.1727 98.0779 79.3033L90.8741 85.3133C90.5082 85.1532 90.0918 85.1126 89.686 85.1973C89.2801 85.282 88.9061 85.4877 88.6188 85.7842L79.9169 83.0944C79.9098 82.9576 79.8866 82.8227 79.8477 82.6924L87.0513 76.6814ZM99.0488 80.3458C99.1776 80.4018 99.3126 80.443 99.4517 80.4699L100.949 89.1699C100.603 89.4014 100.338 89.7291 100.192 90.1048C100.046 90.4805 100.028 90.8845 100.139 91.2574L92.9356 97.2674C92.8074 97.2119 92.6723 97.1706 92.5328 97.1444L91.0343 88.4933C91.3802 88.2619 91.6455 87.9345 91.7914 87.5589C91.9374 87.1834 91.9561 86.7795 91.8451 86.4066L99.0488 80.3458ZM79.3763 84.5022L88.0772 87.1921C88.0974 87.584 88.2488 87.9525 88.5092 88.2434C88.7696 88.5344 89.1253 88.7324 89.5241 88.8086L91.0212 97.5086C90.8996 97.5899 90.7889 97.6835 90.6876 97.7875L81.9868 95.0975C81.9666 94.7056 81.8151 94.3371 81.5547 94.0462C81.2943 93.7553 80.9386 93.5572 80.5399 93.481L79.0427 84.7811C79.1639 84.6995 79.2751 84.6061 79.3763 84.5022Z" fill="#BA99E4"/>
</g>
<g style="mix-blend-mode:overlay">
<path d="M81.935 40L72 48.2895L74.065 60.2894L86.065 64L96 55.7105L93.935 43.7105L81.935 40ZM81.0513 41.6814C81.4173 41.8417 81.835 41.8822 82.2411 41.7975C82.6471 41.7127 83.0213 41.5069 83.3087 41.2101L92.0085 43.9003C92.0156 44.0375 92.0388 44.1727 92.0779 44.3033L84.8741 50.3133C84.5082 50.1532 84.0918 50.1126 83.686 50.1973C83.2801 50.282 82.9061 50.4877 82.6188 50.7842L73.9169 48.0944C73.9098 47.9576 73.8866 47.8227 73.8477 47.6924L81.0513 41.6814ZM93.0488 45.3458C93.1776 45.4018 93.3126 45.443 93.4517 45.4699L94.9488 54.1699C94.603 54.4014 94.3378 54.7291 94.1921 55.1048C94.0464 55.4805 94.0279 55.8845 94.1393 56.2574L86.9356 62.2674C86.8074 62.2119 86.6723 62.1706 86.5328 62.1444L85.0343 53.4933C85.3802 53.2619 85.6455 52.9345 85.7914 52.5589C85.9374 52.1834 85.9561 51.7795 85.8451 51.4066L93.0488 45.3458ZM73.3763 49.5022L82.0772 52.1921C82.0974 52.584 82.2488 52.9525 82.5092 53.2434C82.7696 53.5344 83.1253 53.7324 83.5241 53.8086L85.0212 62.5086C84.8996 62.5899 84.7889 62.6835 84.6876 62.7875L75.9868 60.0975C75.9666 59.7056 75.8151 59.3371 75.5547 59.0462C75.2943 58.7553 74.9386 58.5572 74.5399 58.481L73.0427 49.7811C73.1639 49.6995 73.2751 49.6061 73.3763 49.5022Z" fill="#BA99E4"/>
</g>
<g style="mix-blend-mode:overlay">
<path d="M53.935 10L44 18.2895L46.065 30.2894L58.065 34L68 25.7105L65.935 13.7105L53.935 10ZM53.0513 11.6814C53.4173 11.8417 53.835 11.8822 54.2411 11.7975C54.6471 11.7127 55.0213 11.5069 55.3087 11.2101L64.0085 13.9003C64.0156 14.0375 64.0388 14.1727 64.0779 14.3033L56.8741 20.3133C56.5082 20.1532 56.0918 20.1126 55.686 20.1973C55.2801 20.282 54.9061 20.4877 54.6188 20.7842L45.9169 18.0944C45.9098 17.9576 45.8866 17.8227 45.8477 17.6924L53.0513 11.6814ZM65.0488 15.3458C65.1776 15.4018 65.3126 15.443 65.4517 15.4699L66.9488 24.1699C66.603 24.4014 66.3378 24.7291 66.1921 25.1048C66.0464 25.4805 66.0279 25.8845 66.1393 26.2574L58.9356 32.2674C58.8074 32.2119 58.6723 32.1706 58.5328 32.1444L57.0343 23.4933C57.3802 23.2619 57.6455 22.9345 57.7914 22.5589C57.9374 22.1834 57.9561 21.7795 57.8451 21.4066L65.0488 15.3458ZM45.3763 19.5022L54.0772 22.1921C54.0974 22.584 54.2488 22.9525 54.5092 23.2434C54.7696 23.5344 55.1253 23.7324 55.5241 23.8086L57.0212 32.5086C56.8996 32.5899 56.7889 32.6835 56.6876 32.7875L47.9868 30.0975C47.9666 29.7056 47.8151 29.3371 47.5547 29.0462C47.2943 28.7553 46.9386 28.5572 46.5399 28.481L45.0427 19.7811C45.1639 19.6995 45.2751 19.6061 45.3763 19.5022Z" fill="#BA99E4"/>
</g>
<g style="mix-blend-mode:overlay">
<path d="M17.935 0L8 8.28948L10.065 20.2894L22.065 24L32 15.7105L29.935 3.71048L17.935 0ZM17.0513 1.68138C17.4173 1.8417 17.835 1.88224 18.2411 1.79747C18.6471 1.71269 19.0213 1.50686 19.3087 1.21015L28.0085 3.90028C28.0156 4.03752 28.0388 4.17271 28.0779 4.30328L20.8741 10.3133C20.5082 10.1532 20.0918 10.1126 19.686 10.1973C19.2801 10.282 18.9061 10.4877 18.6188 10.7842L9.91687 8.09445C9.90976 7.95755 9.88657 7.8227 9.8477 7.69244L17.0513 1.68138ZM29.0488 5.34577C29.1776 5.40176 29.3126 5.44298 29.4517 5.46988L30.9488 14.1699C30.603 14.4014 30.3378 14.7291 30.1921 15.1048C30.0464 15.4805 30.0279 15.8845 30.1393 16.2574L22.9356 22.2674C22.8074 22.2119 22.6723 22.1706 22.5328 22.1444L21.0343 13.4933C21.3802 13.2619 21.6455 12.9345 21.7914 12.5589C21.9374 12.1834 21.9561 11.7795 21.8451 11.4066L29.0488 5.34577ZM9.37632 9.50218L18.0772 12.1921C18.0974 12.584 18.2488 12.9525 18.5092 13.2434C18.7696 13.5344 19.1253 13.7324 19.5241 13.8086L21.0212 22.5086C20.8996 22.5899 20.7889 22.6835 20.6876 22.7875L11.9868 20.0975C11.9666 19.7056 11.8151 19.3371 11.5547 19.0462C11.2943 18.7553 10.9386 18.5572 10.5399 18.481L9.04274 9.78108C9.16393 9.69948 9.27509 9.60609 9.37632 9.50218Z" fill="#BA99E4"/>
</g>
<g style="mix-blend-mode:overlay">
<path d="M45.935 30L36 38.2895L38.065 50.2894L50.065 54L60 45.7105L57.935 33.7105L45.935 30ZM45.0513 31.6814C45.4173 31.8417 45.835 31.8822 46.2411 31.7975C46.6471 31.7127 47.0213 31.5069 47.3087 31.2101L56.0085 33.9003C56.0156 34.0375 56.0388 34.1727 56.0779 34.3033L48.8741 40.3133C48.5082 40.1532 48.0918 40.1126 47.686 40.1973C47.2801 40.282 46.9061 40.4877 46.6188 40.7842L37.9169 38.0944C37.9098 37.9576 37.8866 37.8227 37.8477 37.6924L45.0513 31.6814ZM57.0488 35.3458C57.1776 35.4018 57.3126 35.443 57.4517 35.4699L58.9488 44.1699C58.603 44.4014 58.3378 44.7291 58.1921 45.1048C58.0464 45.4805 58.0279 45.8845 58.1393 46.2574L50.9356 52.2674C50.8074 52.2119 50.6723 52.1706 50.5328 52.1444L49.0343 43.4933C49.3802 43.2619 49.6455 42.9345 49.7914 42.5589C49.9374 42.1834 49.9561 41.7795 49.8451 41.4066L57.0488 35.3458ZM37.3763 39.5022L46.0772 42.1921C46.0974 42.584 46.2488 42.9525 46.5092 43.2434C46.7696 43.5344 47.1253 43.7324 47.5241 43.8086L49.0212 52.5086C48.8996 52.5899 48.7889 52.6835 48.6876 52.7875L39.9868 50.0975C39.9666 49.7056 39.8151 49.3371 39.5547 49.0462C39.2943 48.7553 38.9386 48.5572 38.5399 48.481L37.0427 39.7811C37.1639 39.6995 37.2751 39.6061 37.3763 39.5022Z" fill="#BA99E4"/>
</g>
<g style="mix-blend-mode:overlay">
<path d="M9.93503 20L0 28.2895L2.06498 40.2894L14.065 44L24 35.7105L21.935 23.7105L9.93503 20ZM9.05126 21.6814C9.4173 21.8417 9.83497 21.8822 10.2411 21.7975C10.6471 21.7127 11.0213 21.5069 11.3087 21.2101L20.0085 23.9003C20.0156 24.0375 20.0388 24.1727 20.0779 24.3033L12.8741 30.3133C12.5082 30.1532 12.0918 30.1126 11.686 30.1973C11.2801 30.282 10.9061 30.4877 10.6188 30.7842L1.91687 28.0944C1.90976 27.9576 1.88657 27.8227 1.8477 27.6924L9.05126 21.6814ZM21.0488 25.3458C21.1776 25.4018 21.3126 25.443 21.4517 25.4699L22.9488 34.1699C22.603 34.4014 22.3378 34.7291 22.1921 35.1048C22.0464 35.4805 22.0279 35.8845 22.1393 36.2574L14.9356 42.2674C14.8074 42.2119 14.6723 42.1706 14.5328 42.1444L13.0343 33.4933C13.3802 33.2619 13.6455 32.9345 13.7914 32.5589C13.9374 32.1834 13.9561 31.7795 13.8451 31.4066L21.0488 25.3458ZM1.37632 29.5022L10.0772 32.1921C10.0974 32.584 10.2488 32.9525 10.5092 33.2434C10.7696 33.5344 11.1253 33.7324 11.5241 33.8086L13.0212 42.5086C12.8996 42.5899 12.7889 42.6835 12.6876 42.7875L3.98676 40.0975C3.96656 39.7056 3.81514 39.3371 3.55474 39.0462C3.29433 38.7553 2.93864 38.5572 2.53986 38.481L1.04274 29.7811C1.16393 29.6995 1.27509 29.6061 1.37632 29.5022Z" fill="#BA99E4"/>
</g>
<g style="mix-blend-mode:overlay">
<path d="M67.935 25L58 33.2895L60.065 45.2894L72.065 49L82 40.7105L79.935 28.7105L67.935 25ZM67.0513 26.6814C67.4173 26.8417 67.835 26.8822 68.2411 26.7975C68.6471 26.7127 69.0213 26.5069 69.3087 26.2101L78.0085 28.9003C78.0156 29.0375 78.0388 29.1727 78.0779 29.3033L70.8741 35.3133C70.5082 35.1532 70.0918 35.1126 69.686 35.1973C69.2801 35.282 68.9061 35.4877 68.6188 35.7842L59.9169 33.0944C59.9098 32.9576 59.8866 32.8227 59.8477 32.6924L67.0513 26.6814ZM79.0488 30.3458C79.1776 30.4018 79.3126 30.443 79.4517 30.4699L80.9488 39.1699C80.603 39.4014 80.3378 39.7291 80.1921 40.1048C80.0464 40.4805 80.0279 40.8845 80.1393 41.2574L72.9356 47.2674C72.8074 47.2119 72.6723 47.1706 72.5328 47.1444L71.0343 38.4933C71.3802 38.2619 71.6455 37.9345 71.7914 37.5589C71.9374 37.1834 71.9561 36.7795 71.8451 36.4066L79.0488 30.3458ZM59.3763 34.5022L68.0772 37.1921C68.0974 37.584 68.2488 37.9525 68.5092 38.2434C68.7696 38.5344 69.1253 38.7324 69.5241 38.8086L71.0212 47.5086C70.8996 47.5899 70.7889 47.6835 70.6876 47.7875L61.9868 45.0975C61.9666 44.7056 61.8151 44.3371 61.5547 44.0462C61.2943 43.7553 60.9386 43.5572 60.5399 43.481L59.0427 34.7811C59.1639 34.6995 59.2751 34.6061 59.3763 34.5022Z" fill="#BA99E4"/>
</g>
<g style="mix-blend-mode:overlay">
<path d="M31.935 15L22 23.2895L24.065 35.2894L36.065 39L46 30.7105L43.935 18.7105L31.935 15ZM31.0513 16.6814C31.4173 16.8417 31.835 16.8822 32.2411 16.7975C32.6471 16.7127 33.0213 16.5069 33.3087 16.2101L42.0085 18.9003C42.0156 19.0375 42.0388 19.1727 42.0779 19.3033L34.8741 25.3133C34.5082 25.1532 34.0918 25.1126 33.686 25.1973C33.2801 25.282 32.9061 25.4877 32.6188 25.7842L23.9169 23.0944C23.9098 22.9576 23.8866 22.8227 23.8477 22.6924L31.0513 16.6814ZM43.0488 20.3458C43.1776 20.4018 43.3126 20.443 43.4517 20.4699L44.9488 29.1699C44.603 29.4014 44.3378 29.7291 44.1921 30.1048C44.0464 30.4805 44.0279 30.8845 44.1393 31.2574L36.9356 37.2674C36.8074 37.2119 36.6723 37.1706 36.5328 37.1444L35.0343 28.4933C35.3802 28.2619 35.6455 27.9345 35.7914 27.5589C35.9374 27.1834 35.9561 26.7795 35.8451 26.4066L43.0488 20.3458ZM23.3763 24.5022L32.0772 27.1921C32.0974 27.584 32.2488 27.9525 32.5092 28.2434C32.7696 28.5344 33.1253 28.7324 33.5241 28.8086L35.0212 37.5086C34.8996 37.5899 34.7889 37.6835 34.6876 37.7875L25.9868 35.0975C25.9666 34.7056 25.8151 34.3371 25.5547 34.0462C25.2943 33.7553 24.9386 33.5572 24.5399 33.481L23.0427 24.7811C23.1639 24.6995 23.2751 24.6061 23.3763 24.5022Z" fill="#BA99E4"/>
</g>
<g style="mix-blend-mode:overlay">
<path d="M65.935 80L56 88.2895L58.065 100.289L70.065 104L80 95.7105L77.935 83.7105L65.935 80ZM65.0513 81.6814C65.4173 81.8417 65.835 81.8822 66.2411 81.7975C66.6471 81.7127 67.0213 81.5069 67.3087 81.2101L76.0085 83.9003C76.0156 84.0375 76.0388 84.1727 76.0779 84.3033L68.8741 90.3133C68.5082 90.1532 68.0918 90.1126 67.686 90.1973C67.2801 90.282 66.9061 90.4877 66.6188 90.7842L57.9169 88.0944C57.9098 87.9576 57.8866 87.8227 57.8477 87.6924L65.0513 81.6814ZM77.0488 85.3458C77.1776 85.4018 77.3126 85.443 77.4517 85.4699L78.9488 94.1699C78.603 94.4014 78.3378 94.7291 78.1921 95.1048C78.0464 95.4805 78.0279 95.8845 78.1393 96.2574L70.9356 102.267C70.8074 102.212 70.6723 102.171 70.5328 102.144L69.0343 93.4933C69.3802 93.2619 69.6455 92.9345 69.7914 92.5589C69.9374 92.1834 69.9561 91.7795 69.8451 91.4066L77.0488 85.3458ZM57.3763 89.5022L66.0772 92.1921C66.0974 92.584 66.2488 92.9525 66.5092 93.2434C66.7696 93.5344 67.1253 93.7324 67.5241 93.8086L69.0212 102.509C68.8996 102.59 68.7889 102.683 68.6876 102.787L59.9868 100.098C59.9666 99.7056 59.8151 99.3371 59.5547 99.0462C59.2943 98.7553 58.9386 98.5572 58.5399 98.481L57.0427 89.7811C57.1639 89.6995 57.2751 89.6061 57.3763 89.5022Z" fill="#BA99E4"/>
</g>
<g style="mix-blend-mode:overlay">
<path d="M75.935 5L66 13.2895L68.065 25.2894L80.065 29L90 20.7105L87.935 8.71048L75.935 5ZM75.0513 6.68138C75.4173 6.8417 75.835 6.88224 76.2411 6.79747C76.6471 6.71269 77.0213 6.50686 77.3087 6.21015L86.0085 8.90028C86.0156 9.03752 86.0388 9.17271 86.0779 9.30328L78.8741 15.3133C78.5082 15.1532 78.0918 15.1126 77.686 15.1973C77.2801 15.282 76.9061 15.4877 76.6188 15.7842L67.9169 13.0944C67.9098 12.9576 67.8866 12.8227 67.8477 12.6924L75.0513 6.68138ZM87.0488 10.3458C87.1776 10.4018 87.3126 10.443 87.4517 10.4699L88.9488 19.1699C88.603 19.4014 88.3378 19.7291 88.1921 20.1048C88.0464 20.4805 88.0279 20.8845 88.1393 21.2574L80.9356 27.2674C80.8074 27.2119 80.6723 27.1706 80.5328 27.1444L79.0343 18.4933C79.3802 18.2619 79.6455 17.9345 79.7914 17.5589C79.9374 17.1834 79.9561 16.7795 79.8451 16.4066L87.0488 10.3458ZM67.3763 14.5022L76.0772 17.1921C76.0974 17.584 76.2488 17.9525 76.5092 18.2434C76.7696 18.5344 77.1253 18.7324 77.5241 18.8086L79.0212 27.5086C78.8996 27.5899 78.7889 27.6835 78.6876 27.7875L69.9868 25.0975C69.9666 24.7056 69.8151 24.3371 69.5547 24.0462C69.2943 23.7553 68.9386 23.5572 68.5399 23.481L67.0427 14.7811C67.1639 14.6995 67.2751 14.6061 67.3763 14.5022Z" fill="#BA99E4"/>
</g>
<g style="mix-blend-mode:overlay">
<path d="M57.935 100L48 108.289L50.065 120.289L62.065 124L72 115.71L69.935 103.71L57.935 100ZM57.0513 101.681C57.4173 101.842 57.835 101.882 58.2411 101.797C58.6471 101.713 59.0213 101.507 59.3087 101.21L68.0085 103.9C68.0156 104.038 68.0388 104.173 68.0779 104.303L60.8741 110.313C60.5082 110.153 60.0918 110.113 59.686 110.197C59.2801 110.282 58.9061 110.488 58.6188 110.784L49.9169 108.094C49.9098 107.958 49.8866 107.823 49.8477 107.692L57.0513 101.681ZM69.0488 105.346C69.1776 105.402 69.3126 105.443 69.4517 105.47L70.9488 114.17C70.603 114.401 70.3378 114.729 70.1921 115.105C70.0464 115.481 70.0279 115.884 70.1393 116.257L62.9356 122.267C62.8074 122.212 62.6723 122.171 62.5328 122.144L61.0343 113.493C61.3802 113.262 61.6455 112.934 61.7914 112.559C61.9374 112.183 61.9561 111.78 61.8451 111.407L69.0488 105.346ZM49.3763 109.502L58.0772 112.192C58.0974 112.584 58.2488 112.953 58.5092 113.243C58.7696 113.534 59.1253 113.732 59.5241 113.809L61.0212 122.509C60.8996 122.59 60.7889 122.683 60.6876 122.787L51.9868 120.098C51.9666 119.706 51.8151 119.337 51.5547 119.046C51.2943 118.755 50.9386 118.557 50.5399 118.481L49.0427 109.781C49.1639 109.699 49.2751 109.606 49.3763 109.502Z" fill="#BA99E4"/>
</g>
<g style="mix-blend-mode:overlay">
<path d="M79.935 95L70 103.289L72.065 115.289L84.065 119L94 110.71L91.935 98.7105L79.935 95ZM79.0513 96.6814C79.4173 96.8417 79.835 96.8822 80.2411 96.7975C80.6471 96.7127 81.0213 96.5069 81.3087 96.2101L90.0085 98.9003C90.0156 99.0375 90.0388 99.1727 90.0779 99.3033L82.8741 105.313C82.5082 105.153 82.0918 105.113 81.686 105.197C81.2801 105.282 80.9061 105.488 80.6188 105.784L71.9169 103.094C71.9098 102.958 71.8866 102.823 71.8477 102.692L79.0513 96.6814ZM91.0488 100.346C91.1776 100.402 91.3126 100.443 91.4517 100.47L92.9488 109.17C92.603 109.401 92.3378 109.729 92.1921 110.105C92.0464 110.481 92.0279 110.884 92.1393 111.257L84.9356 117.267C84.8074 117.212 84.6723 117.171 84.5328 117.144L83.0343 108.493C83.3802 108.262 83.6455 107.934 83.7914 107.559C83.9374 107.183 83.9561 106.78 83.8451 106.407L91.0488 100.346ZM71.3763 104.502L80.0772 107.192C80.0974 107.584 80.2488 107.953 80.5092 108.243C80.7696 108.534 81.1253 108.732 81.5241 108.809L83.0212 117.509C82.8996 117.59 82.7889 117.683 82.6876 117.787L73.9868 115.098C73.9666 114.706 73.8151 114.337 73.5547 114.046C73.2943 113.755 72.9386 113.557 72.5399 113.481L71.0427 104.781C71.1639 104.699 71.2751 104.606 71.3763 104.502Z" fill="#BA99E4"/>
</g>
<g style="mix-blend-mode:overlay">
<path d="M109.935 70L100 78.2895L102.065 90.2894L114.065 94L124 85.7105L121.935 73.7105L109.935 70ZM109.051 71.6814C109.417 71.8417 109.835 71.8822 110.241 71.7975C110.647 71.7127 111.021 71.5069 111.309 71.2101L120.009 73.9003C120.016 74.0375 120.039 74.1727 120.078 74.3033L112.874 80.3133C112.508 80.1532 112.092 80.1126 111.686 80.1973C111.28 80.282 110.906 80.4877 110.619 80.7842L101.917 78.0944C101.91 77.9576 101.887 77.8227 101.848 77.6924L109.051 71.6814ZM121.049 75.3458C121.178 75.4018 121.313 75.443 121.452 75.4699L122.949 84.1699C122.603 84.4014 122.338 84.7291 122.192 85.1048C122.046 85.4805 122.028 85.8845 122.139 86.2574L114.936 92.2674C114.807 92.2119 114.672 92.1706 114.533 92.1444L113.034 83.4933C113.38 83.2619 113.646 82.9345 113.791 82.5589C113.937 82.1834 113.956 81.7795 113.845 81.4066L121.049 75.3458ZM101.376 79.5022L110.077 82.1921C110.097 82.584 110.249 82.9525 110.509 83.2434C110.77 83.5344 111.125 83.7324 111.524 83.8086L113.021 92.5086C112.9 92.5899 112.789 92.6835 112.688 92.7875L103.987 90.0975C103.967 89.7056 103.815 89.3371 103.555 89.0462C103.294 88.7553 102.939 88.5572 102.54 88.481L101.043 79.7811C101.164 79.6995 101.275 79.6061 101.376 79.5022Z" fill="#BA99E4"/>
</g>
<g style="mix-blend-mode:overlay">
<path d="M103.935 35L94 43.2895L96.065 55.2894L108.065 59L118 50.7105L115.935 38.7105L103.935 35ZM103.051 36.6814C103.417 36.8417 103.835 36.8822 104.241 36.7975C104.647 36.7127 105.021 36.5069 105.309 36.2101L114.009 38.9003C114.016 39.0375 114.039 39.1727 114.078 39.3033L106.874 45.3133C106.508 45.1532 106.092 45.1126 105.686 45.1973C105.28 45.282 104.906 45.4877 104.619 45.7842L95.9169 43.0944C95.9098 42.9576 95.8866 42.8227 95.8477 42.6924L103.051 36.6814ZM115.049 40.3458C115.178 40.4018 115.313 40.443 115.452 40.4699L116.949 49.1699C116.603 49.4014 116.338 49.7291 116.192 50.1048C116.046 50.4805 116.028 50.8845 116.139 51.2574L108.936 57.2674C108.807 57.2119 108.672 57.1706 108.533 57.1444L107.034 48.4933C107.38 48.2619 107.646 47.9345 107.791 47.5589C107.937 47.1834 107.956 46.7795 107.845 46.4066L115.049 40.3458ZM95.3763 44.5022L104.077 47.1921C104.097 47.584 104.249 47.9525 104.509 48.2434C104.77 48.5344 105.125 48.7324 105.524 48.8086L107.021 57.5086C106.9 57.5899 106.789 57.6835 106.688 57.7875L97.9868 55.0975C97.9666 54.7056 97.8151 54.3371 97.5547 54.0462C97.2943 53.7553 96.9386 53.5572 96.5399 53.481L95.0427 44.7811C95.1639 44.6995 95.2751 44.6061 95.3763 44.5022Z" fill="#BA99E4"/>
</g>
<defs>
<filter id="filter0_d_12_56" x="75.2254" y="28.6362" width="40.8109" height="56.2091" filterUnits="userSpaceOnUse" color-interpolation-filters="sRGB">
<feFlood flood-opacity="0" result="BackgroundImageFix"/>
<feColorMatrix in="SourceAlpha" type="matrix" values="0 0 0 0 0 0 0 0 0 0 0 0 0 0 0 0 0 0 127 0" result="hardAlpha"/>
<feOffset dy="4"/>
<feGaussianBlur stdDeviation="2"/>
<feComposite in2="hardAlpha" operator="out"/>
<feColorMatrix type="matrix" values="0 0 0 0 0 0 0 0 0 0 0 0 0 0 0 0 0 0 0.25 0"/>
<feBlend mode="normal" in2="BackgroundImageFix" result="effect1_dropShadow_12_56"/>
<feBlend mode="normal" in="SourceGraphic" in2="effect1_dropShadow_12_56" result="shape"/>
</filter>
<filter id="filter1_d_12_56" x="8.96895" y="35.1554" width="45.3482" height="56.6884" filterUnits="userSpaceOnUse" color-interpolation-filters="sRGB">
<feFlood flood-opacity="0" result="BackgroundImageFix"/>
<feColorMatrix in="SourceAlpha" type="matrix" values="0 0 0 0 0 0 0 0 0 0 0 0 0 0 0 0 0 0 127 0" result="hardAlpha"/>
<feOffset dy="4"/>
<feGaussianBlur stdDeviation="2"/>
<feComposite in2="hardAlpha" operator="out"/>
<feColorMatrix type="matrix" values="0 0 0 0 0 0 0 0 0 0 0 0 0 0 0 0 0 0 0.25 0"/>
<feBlend mode="normal" in2="BackgroundImageFix" result="effect1_dropShadow_12_56"/>
<feBlend mode="normal" in="SourceGraphic" in2="effect1_dropShadow_12_56" result="shape"/>
</filter>
<filter id="filter2_d_12_56" x="38.7422" y="29.1396" width="50.5141" height="64.2099" filterUnits="userSpaceOnUse" color-interpolation-filters="sRGB">
<feFlood flood-opacity="0" result="BackgroundImageFix"/>
<feColorMatrix in="SourceAlpha" type="matrix" values="0 0 0 0 0 0 0 0 0 0 0 0 0 0 0 0 0 0 127 0" result="hardAlpha"/>
<feOffset dy="4"/>
<feGaussianBlur stdDeviation="2"/>
<feComposite in2="hardAlpha" operator="out"/>
<feColorMatrix type="matrix" values="0 0 0 0 0 0 0 0 0 0 0 0 0 0 0 0 0 0 0.25 0"/>
<feBlend mode="normal" in2="BackgroundImageFix" result="effect1_dropShadow_12_56"/>
<feBlend mode="normal" in="SourceGraphic" in2="effect1_dropShadow_12_56" result="shape"/>
</filter>
<clipPath id="clip0_12_56">
<rect width="96" height="96" fill="white" transform="translate(13 10)"/>
</clipPath>
</defs>
</svg>
